G04 #@! TF.GenerationSoftware,KiCad,Pcbnew,(5.1.4)-1*
G04 #@! TF.CreationDate,2020-08-18T14:14:28-04:00*
G04 #@! TF.ProjectId,my_keyboard,6d795f6b-6579-4626-9f61-72642e6b6963,rev?*
G04 #@! TF.SameCoordinates,Original*
G04 #@! TF.FileFunction,Soldermask,Top*
G04 #@! TF.FilePolarity,Negative*
%FSLAX46Y46*%
G04 Gerber Fmt 4.6, Leading zero omitted, Abs format (unit mm)*
G04 Created by KiCad (PCBNEW (5.1.4)-1) date 2020-08-18 14:14:28*
%MOMM*%
%LPD*%
G04 APERTURE LIST*
%ADD10C,0.150000*%
%ADD11C,4.102000*%
%ADD12C,2.302000*%
%ADD13C,1.880000*%
%ADD14C,1.802000*%
%ADD15C,2.102000*%
%ADD16R,3.302000X2.102000*%
%ADD17R,2.102000X2.102000*%
%ADD18C,0.902000*%
%ADD19C,6.502000*%
%ADD20O,1.802000X2.802000*%
G04 APERTURE END LIST*
D10*
X177315419Y-146725069D02*
X177226133Y-146677450D01*
X177142800Y-146582211D01*
X177017800Y-146439354D01*
X176928514Y-146391735D01*
X176833276Y-146391735D01*
X176851133Y-146629830D02*
X176761848Y-146582211D01*
X176678514Y-146486973D01*
X176654705Y-146296497D01*
X176696372Y-145963164D01*
X176767800Y-145772688D01*
X176874943Y-145677450D01*
X176976133Y-145629830D01*
X177166610Y-145629830D01*
X177255895Y-145677450D01*
X177339229Y-145772688D01*
X177363038Y-145963164D01*
X177321372Y-146296497D01*
X177249943Y-146486973D01*
X177142800Y-146582211D01*
X177041610Y-146629830D01*
X176851133Y-146629830D01*
X177708276Y-146629830D02*
X177833276Y-145629830D01*
X178077324Y-146344116D01*
X178499943Y-145629830D01*
X178374943Y-146629830D01*
X178851133Y-146629830D02*
X178976133Y-145629830D01*
X179422562Y-146629830D02*
X179065419Y-146058402D01*
X179547562Y-145629830D02*
X178904705Y-146201259D01*
X179601133Y-146725069D02*
X180363038Y-146725069D01*
X180613038Y-146629830D02*
X180738038Y-145629830D01*
X181184467Y-146629830D02*
X180827324Y-146058402D01*
X181309467Y-145629830D02*
X180666610Y-146201259D01*
X181999943Y-146582211D02*
X181898752Y-146629830D01*
X181708276Y-146629830D01*
X181618991Y-146582211D01*
X181583276Y-146486973D01*
X181630895Y-146106021D01*
X181690419Y-146010783D01*
X181791610Y-145963164D01*
X181982086Y-145963164D01*
X182071372Y-146010783D01*
X182107086Y-146106021D01*
X182095181Y-146201259D01*
X181607086Y-146296497D01*
X182458276Y-145963164D02*
X182613038Y-146629830D01*
X182934467Y-145963164D02*
X182613038Y-146629830D01*
X182488038Y-146867926D01*
X182434467Y-146915545D01*
X182333276Y-146963164D01*
X183315419Y-145963164D02*
X183190419Y-146963164D01*
X183309467Y-146010783D02*
X183410657Y-145963164D01*
X183601133Y-145963164D01*
X183690419Y-146010783D01*
X183732086Y-146058402D01*
X183767800Y-146153640D01*
X183732086Y-146439354D01*
X183672562Y-146534592D01*
X183618991Y-146582211D01*
X183517800Y-146629830D01*
X183327324Y-146629830D01*
X183238038Y-146582211D01*
X184565419Y-146629830D02*
X184630895Y-146106021D01*
X184595181Y-146010783D01*
X184505895Y-145963164D01*
X184315419Y-145963164D01*
X184214229Y-146010783D01*
X184571372Y-146582211D02*
X184470181Y-146629830D01*
X184232086Y-146629830D01*
X184142800Y-146582211D01*
X184107086Y-146486973D01*
X184118991Y-146391735D01*
X184178514Y-146296497D01*
X184279705Y-146248878D01*
X184517800Y-146248878D01*
X184618991Y-146201259D01*
X185470181Y-146629830D02*
X185595181Y-145629830D01*
X185476133Y-146582211D02*
X185374943Y-146629830D01*
X185184467Y-146629830D01*
X185095181Y-146582211D01*
X185053514Y-146534592D01*
X185017800Y-146439354D01*
X185053514Y-146153640D01*
X185113038Y-146058402D01*
X185166610Y-146010783D01*
X185267800Y-145963164D01*
X185458276Y-145963164D01*
X185547562Y-146010783D01*
X186696372Y-145963164D02*
X186851133Y-146629830D01*
X187172562Y-145963164D01*
X187993991Y-146629830D02*
X187422562Y-146629830D01*
X187708276Y-146629830D02*
X187833276Y-145629830D01*
X187720181Y-145772688D01*
X187613038Y-145867926D01*
X187511848Y-145915545D01*
X176226133Y-147756021D02*
X176363038Y-147803640D01*
X176404705Y-147851259D01*
X176440419Y-147946497D01*
X176422562Y-148089354D01*
X176363038Y-148184592D01*
X176309467Y-148232211D01*
X176208276Y-148279830D01*
X175827324Y-148279830D01*
X175952324Y-147279830D01*
X176285657Y-147279830D01*
X176374943Y-147327450D01*
X176416610Y-147375069D01*
X176452324Y-147470307D01*
X176440419Y-147565545D01*
X176380895Y-147660783D01*
X176327324Y-147708402D01*
X176226133Y-147756021D01*
X175892800Y-147756021D01*
X176815419Y-147613164D02*
X176970181Y-148279830D01*
X177291610Y-147613164D02*
X176970181Y-148279830D01*
X176845181Y-148517926D01*
X176791610Y-148565545D01*
X176690419Y-148613164D01*
X177601133Y-148184592D02*
X177642800Y-148232211D01*
X177589229Y-148279830D01*
X177547562Y-148232211D01*
X177601133Y-148184592D01*
X177589229Y-148279830D01*
X177666610Y-147660783D02*
X177708276Y-147708402D01*
X177654705Y-147756021D01*
X177613038Y-147708402D01*
X177666610Y-147660783D01*
X177654705Y-147756021D01*
X179482086Y-148375069D02*
X179392800Y-148327450D01*
X179309467Y-148232211D01*
X179184467Y-148089354D01*
X179095181Y-148041735D01*
X178999943Y-148041735D01*
X179017800Y-148279830D02*
X178928514Y-148232211D01*
X178845181Y-148136973D01*
X178821372Y-147946497D01*
X178863038Y-147613164D01*
X178934467Y-147422688D01*
X179041610Y-147327450D01*
X179142800Y-147279830D01*
X179333276Y-147279830D01*
X179422562Y-147327450D01*
X179505895Y-147422688D01*
X179529705Y-147613164D01*
X179488038Y-147946497D01*
X179416610Y-148136973D01*
X179309467Y-148232211D01*
X179208276Y-148279830D01*
X179017800Y-148279830D01*
X180386848Y-147613164D02*
X180303514Y-148279830D01*
X179958276Y-147613164D02*
X179892800Y-148136973D01*
X179928514Y-148232211D01*
X180017800Y-148279830D01*
X180160657Y-148279830D01*
X180261848Y-148232211D01*
X180315419Y-148184592D01*
X181208276Y-148279830D02*
X181273752Y-147756021D01*
X181238038Y-147660783D01*
X181148752Y-147613164D01*
X180958276Y-147613164D01*
X180857086Y-147660783D01*
X181214229Y-148232211D02*
X181113038Y-148279830D01*
X180874943Y-148279830D01*
X180785657Y-148232211D01*
X180749943Y-148136973D01*
X180761848Y-148041735D01*
X180821372Y-147946497D01*
X180922562Y-147898878D01*
X181160657Y-147898878D01*
X181261848Y-147851259D01*
X181767800Y-147613164D02*
X181684467Y-148279830D01*
X181755895Y-147708402D02*
X181809467Y-147660783D01*
X181910657Y-147613164D01*
X182053514Y-147613164D01*
X182142800Y-147660783D01*
X182178514Y-147756021D01*
X182113038Y-148279830D01*
X183101133Y-147613164D02*
X182999943Y-148422688D01*
X182940419Y-148517926D01*
X182886848Y-148565545D01*
X182785657Y-148613164D01*
X182642800Y-148613164D01*
X182553514Y-148565545D01*
X183023752Y-148232211D02*
X182922562Y-148279830D01*
X182732086Y-148279830D01*
X182642800Y-148232211D01*
X182601133Y-148184592D01*
X182565419Y-148089354D01*
X182601133Y-147803640D01*
X182660657Y-147708402D01*
X182714229Y-147660783D01*
X182815419Y-147613164D01*
X183005895Y-147613164D01*
X183095181Y-147660783D01*
X184238038Y-147279830D02*
X184809467Y-147279830D01*
X184398752Y-148279830D02*
X184523752Y-147279830D01*
X185017800Y-148279830D02*
X185101133Y-147613164D01*
X185077324Y-147803640D02*
X185136848Y-147708402D01*
X185190419Y-147660783D01*
X185291610Y-147613164D01*
X185386848Y-147613164D01*
X186148752Y-147613164D02*
X186065419Y-148279830D01*
X185720181Y-147613164D02*
X185654705Y-148136973D01*
X185690419Y-148232211D01*
X185779705Y-148279830D01*
X185922562Y-148279830D01*
X186023752Y-148232211D01*
X186077324Y-148184592D01*
X186684467Y-148279830D02*
X186595181Y-148232211D01*
X186553514Y-148184592D01*
X186517800Y-148089354D01*
X186553514Y-147803640D01*
X186613038Y-147708402D01*
X186666610Y-147660783D01*
X186767800Y-147613164D01*
X186910657Y-147613164D01*
X186999943Y-147660783D01*
X187041610Y-147708402D01*
X187077324Y-147803640D01*
X187041610Y-148089354D01*
X186982086Y-148184592D01*
X186928514Y-148232211D01*
X186827324Y-148279830D01*
X186684467Y-148279830D01*
X187529705Y-147613164D02*
X187446372Y-148279830D01*
X187517800Y-147708402D02*
X187571372Y-147660783D01*
X187672562Y-147613164D01*
X187815419Y-147613164D01*
X187904705Y-147660783D01*
X187940419Y-147756021D01*
X187874943Y-148279830D01*
X188863038Y-147613164D02*
X188761848Y-148422688D01*
X188702324Y-148517926D01*
X188648752Y-148565545D01*
X188547562Y-148613164D01*
X188404705Y-148613164D01*
X188315419Y-148565545D01*
X188785657Y-148232211D02*
X188684467Y-148279830D01*
X188493991Y-148279830D01*
X188404705Y-148232211D01*
X188363038Y-148184592D01*
X188327324Y-148089354D01*
X188363038Y-147803640D01*
X188422562Y-147708402D01*
X188476133Y-147660783D01*
X188577324Y-147613164D01*
X188767800Y-147613164D01*
X188857086Y-147660783D01*
D11*
X162084000Y-131762000D03*
D12*
X158274000Y-129222000D03*
X164624000Y-126682000D03*
D11*
X162084000Y-93662400D03*
D12*
X158274000Y-91122400D03*
X164624000Y-88582400D03*
D11*
X114458000Y-141287000D03*
D12*
X110648000Y-138747000D03*
X116998000Y-136207000D03*
D13*
X185261000Y-61594900D03*
X187801000Y-61594900D03*
X190341000Y-61594900D03*
X192881000Y-61594900D03*
D14*
X110014000Y-65087400D03*
X99854000Y-65087400D03*
D11*
X104934000Y-65087400D03*
D12*
X101124000Y-62547400D03*
X107474000Y-60007400D03*
X107474000Y-79057400D03*
X101124000Y-81597400D03*
D11*
X104934000Y-84137400D03*
D14*
X99854000Y-84137400D03*
X110014000Y-84137400D03*
X110014000Y-103187400D03*
X99854000Y-103187400D03*
D11*
X104934000Y-103187400D03*
D12*
X101124000Y-100647400D03*
X107474000Y-98107400D03*
X107474000Y-117157000D03*
X101124000Y-119697000D03*
D11*
X104934000Y-122237000D03*
D14*
X99854000Y-122237000D03*
X110014000Y-122237000D03*
D12*
X126524000Y-60007400D03*
X120174000Y-62547400D03*
D11*
X123984000Y-65087400D03*
D14*
X118904000Y-65087400D03*
X129064000Y-65087400D03*
X129064000Y-84137400D03*
X118904000Y-84137400D03*
D11*
X123984000Y-84137400D03*
D12*
X120174000Y-81597400D03*
X126524000Y-79057400D03*
X126524000Y-98107400D03*
X120174000Y-100647400D03*
D11*
X123984000Y-103187400D03*
D14*
X118904000Y-103187400D03*
X129064000Y-103187400D03*
X129064000Y-122237000D03*
X118904000Y-122237000D03*
D11*
X123984000Y-122237000D03*
D12*
X120174000Y-119697000D03*
X126524000Y-117157000D03*
X145574000Y-136207000D03*
X139224000Y-138747000D03*
D11*
X143034000Y-141287000D03*
D14*
X137954000Y-141287000D03*
X148114000Y-141287000D03*
X148114000Y-65087400D03*
X137954000Y-65087400D03*
D11*
X143034000Y-65087400D03*
D12*
X139224000Y-62547400D03*
X145574000Y-60007400D03*
X145574000Y-79057400D03*
X139224000Y-81597400D03*
D11*
X143034000Y-84137400D03*
D14*
X137954000Y-84137400D03*
X148114000Y-84137400D03*
X148114000Y-103187400D03*
X137954000Y-103187400D03*
D11*
X143034000Y-103187400D03*
D12*
X139224000Y-100647400D03*
X145574000Y-98107400D03*
X145574000Y-117157000D03*
X139224000Y-119697000D03*
D11*
X143034000Y-122237000D03*
D14*
X137954000Y-122237000D03*
X148114000Y-122237000D03*
D12*
X164624000Y-60007400D03*
X158274000Y-62547400D03*
D11*
X162084000Y-65087400D03*
D14*
X157004000Y-65087400D03*
X167164000Y-65087400D03*
D15*
X182350000Y-96600000D03*
X182350000Y-101600000D03*
D16*
X189350000Y-93500000D03*
X189350000Y-104700000D03*
D15*
X196850000Y-96600000D03*
X196850000Y-99100000D03*
D17*
X196850000Y-101600000D03*
X196850000Y-136525000D03*
D15*
X196850000Y-134025000D03*
X196850000Y-131525000D03*
D16*
X189350000Y-139625000D03*
X189350000Y-128425000D03*
D15*
X182350000Y-136525000D03*
X182350000Y-131525000D03*
X182350000Y-114062000D03*
X182350000Y-119062000D03*
D16*
X189350000Y-110962000D03*
X189350000Y-122162000D03*
D15*
X196850000Y-114062000D03*
X196850000Y-116562000D03*
D17*
X196850000Y-119062000D03*
D18*
X201087056Y-58627844D03*
X199390000Y-57924900D03*
X197692944Y-58627844D03*
X196990000Y-60324900D03*
X197692944Y-62021956D03*
X199390000Y-62724900D03*
X201087056Y-62021956D03*
X201790000Y-60324900D03*
D19*
X199390000Y-60324900D03*
X100171000Y-146050000D03*
D18*
X102571000Y-146050000D03*
X101868056Y-147747056D03*
X100171000Y-148450000D03*
X98473944Y-147747056D03*
X97771000Y-146050000D03*
X98473944Y-144352944D03*
X100171000Y-143650000D03*
X101868056Y-144352944D03*
D19*
X114458000Y-74612400D03*
D18*
X116858000Y-74612400D03*
X116155056Y-76309456D03*
X114458000Y-77012400D03*
X112760944Y-76309456D03*
X112058000Y-74612400D03*
X112760944Y-72915344D03*
X114458000Y-72212400D03*
X116155056Y-72915344D03*
X201087056Y-144352944D03*
X199390000Y-143650000D03*
X197692944Y-144352944D03*
X196990000Y-146050000D03*
X197692944Y-147747056D03*
X199390000Y-148450000D03*
X201087056Y-147747056D03*
X201790000Y-146050000D03*
D19*
X199390000Y-146050000D03*
D20*
X174944000Y-61713400D03*
X182244000Y-61713400D03*
X182244000Y-57213400D03*
X174944000Y-57213400D03*
M02*
