M48
; DRILL file {KiCad (5.1.4)-1} date 8/18/2020 2:14:31 PM
; FORMAT={-:-/ absolute / inch / decimal}
; #@! TF.CreationDate,2020-08-18T14:14:31-04:00
; #@! TF.GenerationSoftware,Kicad,Pcbnew,(5.1.4)-1
; #@! TF.FileFunction,NonPlated,1,2,NPTH
FMAT,2
INCH
T1C0.0669
T2C0.1575
%
G90
G05
T1
X5.4313Y-3.3125
X5.8313Y-3.3125
X4.3313Y-3.3125
X3.9313Y-4.8125
X4.3313Y-4.8125
X5.4313Y-4.0625
X5.8313Y-4.0625
X6.1813Y-2.5625
X6.5813Y-2.5625
X4.6813Y-3.3125
X5.0813Y-3.3125
X4.6813Y-4.8125
X5.0813Y-4.8125
X5.4313Y-5.5625
X5.8313Y-5.5625
X4.6813Y-4.0625
X5.0813Y-4.0625
X3.9313Y-4.0625
X4.3313Y-4.0625
X3.9313Y-3.3125
X3.9313Y-2.5625
X4.3313Y-2.5625
X5.4313Y-4.8125
X5.8313Y-4.8125
X4.6813Y-2.5625
X5.0813Y-2.5625
X5.4313Y-2.5625
X5.8313Y-2.5625
T2
X4.5062Y-5.5625
X5.6313Y-5.5625
X4.8813Y-4.0625
X5.6313Y-3.3125
X4.1313Y-4.0625
X6.3813Y-5.1875
X4.1313Y-3.3125
X4.1313Y-2.5625
X5.6313Y-4.8125
X4.8813Y-2.5625
X5.6313Y-2.5625
X6.3813Y-3.6875
X4.1313Y-4.8125
X5.6313Y-4.0625
X6.3813Y-2.5625
X4.8813Y-3.3125
X4.8813Y-4.8125
T0
M30
