M48
; DRILL file {KiCad (5.1.4)-1} date 8/18/2020 2:14:31 PM
; FORMAT={-:-/ absolute / inch / decimal}
; #@! TF.CreationDate,2020-08-18T14:14:31-04:00
; #@! TF.GenerationSoftware,Kicad,Pcbnew,(5.1.4)-1
; #@! TF.FileFunction,Plated,1,2,PTH
FMAT,2
INCH
T1C0.0157
T2C0.0197
T3C0.0276
T4C0.0394
T5C0.0413
T6C0.0591
T7C0.1260
%
G90
G05
T1
X6.8926Y-2.9867
X7.0367Y-2.9931
X7.0858Y-2.7053
X7.1593Y-3.192
X7.2308Y-3.6692
X7.2668Y-3.0653
X7.2676Y-3.2161
X7.3003Y-3.4895
X7.3066Y-3.1698
X7.3176Y-3.0731
X7.3215Y-3.2503
X7.3268Y-3.1279
X7.3705Y-3.2098
X7.3745Y-3.3849
X7.476Y-2.7874
X7.4987Y-2.9401
X7.5022Y-2.7468
X7.5388Y-2.9424
X7.5766Y-2.9931
X7.6071Y-3.0575
X7.6082Y-3.1767
T2
X3.8493Y-5.75
X3.8769Y-5.6832
X3.8769Y-5.8168
X3.9437Y-5.6555
X3.9437Y-5.8445
X4.0106Y-5.6832
X4.0106Y-5.8168
X4.0382Y-5.75
X7.7555Y-5.75
X7.7832Y-5.6832
X7.7832Y-5.8168
X7.85Y-5.6555
X7.85Y-5.8445
X7.9168Y-5.6832
X7.9168Y-5.8168
X7.9445Y-5.75
X7.7555Y-2.375
X7.7832Y-2.3082
X7.7832Y-2.4418
X7.85Y-2.2805
X7.85Y-2.4695
X7.9168Y-2.3082
X7.9168Y-2.4418
X7.9445Y-2.375
X4.4117Y-2.9375
X4.4394Y-2.8707
X4.4394Y-3.0043
X4.5062Y-2.843
X4.5062Y-3.032
X4.573Y-2.8707
X4.573Y-3.0043
X4.6007Y-2.9375
T4
X7.1791Y-3.8031
X7.1791Y-4.0
X7.75Y-3.8031
X7.75Y-3.9016
X7.75Y-4.0
X7.1791Y-4.4906
X7.1791Y-4.6875
X7.75Y-4.4906
X7.75Y-4.5891
X7.75Y-4.6875
X7.1791Y-5.1781
X7.1791Y-5.375
X7.75Y-5.1781
X7.75Y-5.2766
X7.75Y-5.375
T5
X7.2937Y-2.425
X7.3937Y-2.425
X7.4937Y-2.425
X7.5937Y-2.425
T6
X3.9813Y-2.4625
X4.2313Y-2.3625
X5.4813Y-4.7125
X5.7313Y-4.6125
X4.7313Y-2.4625
X4.9813Y-2.3625
X5.4813Y-2.4625
X5.7313Y-2.3625
X6.2313Y-3.5875
X6.4813Y-3.4875
X3.9813Y-4.7125
X4.2313Y-4.6125
X5.4813Y-3.9625
X5.7313Y-3.8625
X6.2313Y-2.4625
X6.4813Y-2.3625
X4.7313Y-3.2125
X4.9813Y-3.1125
X4.7313Y-4.7125
X4.9813Y-4.6125
X4.3562Y-5.4625
X4.6062Y-5.3625
X5.4813Y-5.4625
X5.7313Y-5.3625
X4.7313Y-3.9625
X4.9813Y-3.8625
X5.4813Y-3.2125
X5.7313Y-3.1125
X3.9813Y-3.9625
X4.2313Y-3.8625
X6.2313Y-5.0875
X6.4813Y-4.9875
X3.9813Y-3.2125
X4.2313Y-3.1125
T7
X7.85Y-2.375
X4.5062Y-2.9375
X3.9437Y-5.75
X7.85Y-5.75
T3
G00X6.8876Y-2.2289
M15
G01X6.8876Y-2.2761
M16
G05
G00X6.8876Y-2.406
M15
G01X6.8876Y-2.4533
M16
G05
G00X7.175Y-2.2289
M15
G01X7.175Y-2.2761
M16
G05
G00X7.175Y-2.406
M15
G01X7.175Y-2.4533
M16
G05
T6
G00X7.4803Y-4.3686
M15
G01X7.4291Y-4.3686
M16
G05
G00X7.4803Y-4.8095
M15
G01X7.4291Y-4.8095
M16
G05
G00X7.4803Y-5.0561
M15
G01X7.4291Y-5.0561
M16
G05
G00X7.4803Y-5.497
M15
G01X7.4291Y-5.497
M16
G05
G00X7.4803Y-3.6811
M15
G01X7.4291Y-3.6811
M16
G05
G00X7.4803Y-4.122
M15
G01X7.4291Y-4.122
M16
G05
T0
M30
