G04 #@! TF.GenerationSoftware,KiCad,Pcbnew,(5.1.4)-1*
G04 #@! TF.CreationDate,2020-08-18T14:14:28-04:00*
G04 #@! TF.ProjectId,my_keyboard,6d795f6b-6579-4626-9f61-72642e6b6963,rev?*
G04 #@! TF.SameCoordinates,Original*
G04 #@! TF.FileFunction,Copper,L2,Bot*
G04 #@! TF.FilePolarity,Positive*
%FSLAX46Y46*%
G04 Gerber Fmt 4.6, Leading zero omitted, Abs format (unit mm)*
G04 Created by KiCad (PCBNEW (5.1.4)-1) date 2020-08-18 14:14:28*
%MOMM*%
%LPD*%
G04 APERTURE LIST*
%ADD10C,2.200000*%
%ADD11C,0.100000*%
%ADD12C,1.150000*%
%ADD13C,1.778000*%
%ADD14C,2.000000*%
%ADD15R,3.200000X2.000000*%
%ADD16R,2.000000X2.000000*%
%ADD17R,1.000000X0.750000*%
%ADD18C,1.425000*%
%ADD19R,0.550000X1.500000*%
%ADD20R,1.500000X0.550000*%
%ADD21R,2.100000X1.800000*%
%ADD22C,0.800000*%
%ADD23C,6.400000*%
%ADD24R,0.500000X2.250000*%
%ADD25O,1.700000X2.700000*%
%ADD26R,1.200000X0.900000*%
%ADD27C,0.381000*%
%ADD28C,0.254000*%
G04 APERTURE END LIST*
D10*
X158274000Y-129222000D03*
X164624000Y-126682000D03*
X158274000Y-91122400D03*
X164624000Y-88582400D03*
X110648000Y-138747000D03*
X116998000Y-136207000D03*
D11*
G36*
X191412505Y-66770004D02*
G01*
X191436773Y-66773604D01*
X191460572Y-66779565D01*
X191483671Y-66787830D01*
X191505850Y-66798320D01*
X191526893Y-66810932D01*
X191546599Y-66825547D01*
X191564777Y-66842023D01*
X191581253Y-66860201D01*
X191595868Y-66879907D01*
X191608480Y-66900950D01*
X191618970Y-66923129D01*
X191627235Y-66946228D01*
X191633196Y-66970027D01*
X191636796Y-66994295D01*
X191638000Y-67018799D01*
X191638000Y-67918801D01*
X191636796Y-67943305D01*
X191633196Y-67967573D01*
X191627235Y-67991372D01*
X191618970Y-68014471D01*
X191608480Y-68036650D01*
X191595868Y-68057693D01*
X191581253Y-68077399D01*
X191564777Y-68095577D01*
X191546599Y-68112053D01*
X191526893Y-68126668D01*
X191505850Y-68139280D01*
X191483671Y-68149770D01*
X191460572Y-68158035D01*
X191436773Y-68163996D01*
X191412505Y-68167596D01*
X191388001Y-68168800D01*
X190737999Y-68168800D01*
X190713495Y-68167596D01*
X190689227Y-68163996D01*
X190665428Y-68158035D01*
X190642329Y-68149770D01*
X190620150Y-68139280D01*
X190599107Y-68126668D01*
X190579401Y-68112053D01*
X190561223Y-68095577D01*
X190544747Y-68077399D01*
X190530132Y-68057693D01*
X190517520Y-68036650D01*
X190507030Y-68014471D01*
X190498765Y-67991372D01*
X190492804Y-67967573D01*
X190489204Y-67943305D01*
X190488000Y-67918801D01*
X190488000Y-67018799D01*
X190489204Y-66994295D01*
X190492804Y-66970027D01*
X190498765Y-66946228D01*
X190507030Y-66923129D01*
X190517520Y-66900950D01*
X190530132Y-66879907D01*
X190544747Y-66860201D01*
X190561223Y-66842023D01*
X190579401Y-66825547D01*
X190599107Y-66810932D01*
X190620150Y-66798320D01*
X190642329Y-66787830D01*
X190665428Y-66779565D01*
X190689227Y-66773604D01*
X190713495Y-66770004D01*
X190737999Y-66768800D01*
X191388001Y-66768800D01*
X191412505Y-66770004D01*
X191412505Y-66770004D01*
G37*
D12*
X191063000Y-67468800D03*
D11*
G36*
X193462505Y-66770004D02*
G01*
X193486773Y-66773604D01*
X193510572Y-66779565D01*
X193533671Y-66787830D01*
X193555850Y-66798320D01*
X193576893Y-66810932D01*
X193596599Y-66825547D01*
X193614777Y-66842023D01*
X193631253Y-66860201D01*
X193645868Y-66879907D01*
X193658480Y-66900950D01*
X193668970Y-66923129D01*
X193677235Y-66946228D01*
X193683196Y-66970027D01*
X193686796Y-66994295D01*
X193688000Y-67018799D01*
X193688000Y-67918801D01*
X193686796Y-67943305D01*
X193683196Y-67967573D01*
X193677235Y-67991372D01*
X193668970Y-68014471D01*
X193658480Y-68036650D01*
X193645868Y-68057693D01*
X193631253Y-68077399D01*
X193614777Y-68095577D01*
X193596599Y-68112053D01*
X193576893Y-68126668D01*
X193555850Y-68139280D01*
X193533671Y-68149770D01*
X193510572Y-68158035D01*
X193486773Y-68163996D01*
X193462505Y-68167596D01*
X193438001Y-68168800D01*
X192787999Y-68168800D01*
X192763495Y-68167596D01*
X192739227Y-68163996D01*
X192715428Y-68158035D01*
X192692329Y-68149770D01*
X192670150Y-68139280D01*
X192649107Y-68126668D01*
X192629401Y-68112053D01*
X192611223Y-68095577D01*
X192594747Y-68077399D01*
X192580132Y-68057693D01*
X192567520Y-68036650D01*
X192557030Y-68014471D01*
X192548765Y-67991372D01*
X192542804Y-67967573D01*
X192539204Y-67943305D01*
X192538000Y-67918801D01*
X192538000Y-67018799D01*
X192539204Y-66994295D01*
X192542804Y-66970027D01*
X192548765Y-66946228D01*
X192557030Y-66923129D01*
X192567520Y-66900950D01*
X192580132Y-66879907D01*
X192594747Y-66860201D01*
X192611223Y-66842023D01*
X192629401Y-66825547D01*
X192649107Y-66810932D01*
X192670150Y-66798320D01*
X192692329Y-66787830D01*
X192715428Y-66779565D01*
X192739227Y-66773604D01*
X192763495Y-66770004D01*
X192787999Y-66768800D01*
X193438001Y-66768800D01*
X193462505Y-66770004D01*
X193462505Y-66770004D01*
G37*
D12*
X193113000Y-67468800D03*
D13*
X185261000Y-61594900D03*
X187801000Y-61594900D03*
X190341000Y-61594900D03*
X192881000Y-61594900D03*
D10*
X101124000Y-62547400D03*
X107474000Y-60007400D03*
X107474000Y-79057400D03*
X101124000Y-81597400D03*
X101124000Y-100647400D03*
X107474000Y-98107400D03*
X107474000Y-117157000D03*
X101124000Y-119697000D03*
X126524000Y-60007400D03*
X120174000Y-62547400D03*
X120174000Y-81597400D03*
X126524000Y-79057400D03*
X126524000Y-98107400D03*
X120174000Y-100647400D03*
X120174000Y-119697000D03*
X126524000Y-117157000D03*
X145574000Y-136207000D03*
X139224000Y-138747000D03*
X139224000Y-62547400D03*
X145574000Y-60007400D03*
X145574000Y-79057400D03*
X139224000Y-81597400D03*
X139224000Y-100647400D03*
X145574000Y-98107400D03*
X145574000Y-117157000D03*
X139224000Y-119697000D03*
X164624000Y-60007400D03*
X158274000Y-62547400D03*
D14*
X182350000Y-96600000D03*
X182350000Y-101600000D03*
D15*
X189350000Y-93500000D03*
X189350000Y-104700000D03*
D14*
X196850000Y-96600000D03*
X196850000Y-99100000D03*
D16*
X196850000Y-101600000D03*
X196850000Y-136525000D03*
D14*
X196850000Y-134025000D03*
X196850000Y-131525000D03*
D15*
X189350000Y-139625000D03*
X189350000Y-128425000D03*
D14*
X182350000Y-136525000D03*
X182350000Y-131525000D03*
X182350000Y-114062000D03*
X182350000Y-119062000D03*
D15*
X189350000Y-110962000D03*
X189350000Y-122162000D03*
D14*
X196850000Y-114062000D03*
X196850000Y-116562000D03*
D16*
X196850000Y-119062000D03*
D17*
X171600000Y-80079400D03*
X177600000Y-76329400D03*
X177600000Y-80079400D03*
X171600000Y-76329400D03*
D11*
G36*
X195049505Y-86709004D02*
G01*
X195073773Y-86712604D01*
X195097572Y-86718565D01*
X195120671Y-86726830D01*
X195142850Y-86737320D01*
X195163893Y-86749932D01*
X195183599Y-86764547D01*
X195201777Y-86781023D01*
X195218253Y-86799201D01*
X195232868Y-86818907D01*
X195245480Y-86839950D01*
X195255970Y-86862129D01*
X195264235Y-86885228D01*
X195270196Y-86909027D01*
X195273796Y-86933295D01*
X195275000Y-86957799D01*
X195275000Y-87857801D01*
X195273796Y-87882305D01*
X195270196Y-87906573D01*
X195264235Y-87930372D01*
X195255970Y-87953471D01*
X195245480Y-87975650D01*
X195232868Y-87996693D01*
X195218253Y-88016399D01*
X195201777Y-88034577D01*
X195183599Y-88051053D01*
X195163893Y-88065668D01*
X195142850Y-88078280D01*
X195120671Y-88088770D01*
X195097572Y-88097035D01*
X195073773Y-88102996D01*
X195049505Y-88106596D01*
X195025001Y-88107800D01*
X194374999Y-88107800D01*
X194350495Y-88106596D01*
X194326227Y-88102996D01*
X194302428Y-88097035D01*
X194279329Y-88088770D01*
X194257150Y-88078280D01*
X194236107Y-88065668D01*
X194216401Y-88051053D01*
X194198223Y-88034577D01*
X194181747Y-88016399D01*
X194167132Y-87996693D01*
X194154520Y-87975650D01*
X194144030Y-87953471D01*
X194135765Y-87930372D01*
X194129804Y-87906573D01*
X194126204Y-87882305D01*
X194125000Y-87857801D01*
X194125000Y-86957799D01*
X194126204Y-86933295D01*
X194129804Y-86909027D01*
X194135765Y-86885228D01*
X194144030Y-86862129D01*
X194154520Y-86839950D01*
X194167132Y-86818907D01*
X194181747Y-86799201D01*
X194198223Y-86781023D01*
X194216401Y-86764547D01*
X194236107Y-86749932D01*
X194257150Y-86737320D01*
X194279329Y-86726830D01*
X194302428Y-86718565D01*
X194326227Y-86712604D01*
X194350495Y-86709004D01*
X194374999Y-86707800D01*
X195025001Y-86707800D01*
X195049505Y-86709004D01*
X195049505Y-86709004D01*
G37*
D12*
X194700000Y-87407800D03*
D11*
G36*
X192999505Y-86709004D02*
G01*
X193023773Y-86712604D01*
X193047572Y-86718565D01*
X193070671Y-86726830D01*
X193092850Y-86737320D01*
X193113893Y-86749932D01*
X193133599Y-86764547D01*
X193151777Y-86781023D01*
X193168253Y-86799201D01*
X193182868Y-86818907D01*
X193195480Y-86839950D01*
X193205970Y-86862129D01*
X193214235Y-86885228D01*
X193220196Y-86909027D01*
X193223796Y-86933295D01*
X193225000Y-86957799D01*
X193225000Y-87857801D01*
X193223796Y-87882305D01*
X193220196Y-87906573D01*
X193214235Y-87930372D01*
X193205970Y-87953471D01*
X193195480Y-87975650D01*
X193182868Y-87996693D01*
X193168253Y-88016399D01*
X193151777Y-88034577D01*
X193133599Y-88051053D01*
X193113893Y-88065668D01*
X193092850Y-88078280D01*
X193070671Y-88088770D01*
X193047572Y-88097035D01*
X193023773Y-88102996D01*
X192999505Y-88106596D01*
X192975001Y-88107800D01*
X192324999Y-88107800D01*
X192300495Y-88106596D01*
X192276227Y-88102996D01*
X192252428Y-88097035D01*
X192229329Y-88088770D01*
X192207150Y-88078280D01*
X192186107Y-88065668D01*
X192166401Y-88051053D01*
X192148223Y-88034577D01*
X192131747Y-88016399D01*
X192117132Y-87996693D01*
X192104520Y-87975650D01*
X192094030Y-87953471D01*
X192085765Y-87930372D01*
X192079804Y-87906573D01*
X192076204Y-87882305D01*
X192075000Y-87857801D01*
X192075000Y-86957799D01*
X192076204Y-86933295D01*
X192079804Y-86909027D01*
X192085765Y-86885228D01*
X192094030Y-86862129D01*
X192104520Y-86839950D01*
X192117132Y-86818907D01*
X192131747Y-86799201D01*
X192148223Y-86781023D01*
X192166401Y-86764547D01*
X192186107Y-86749932D01*
X192207150Y-86737320D01*
X192229329Y-86726830D01*
X192252428Y-86718565D01*
X192276227Y-86712604D01*
X192300495Y-86709004D01*
X192324999Y-86707800D01*
X192975001Y-86707800D01*
X192999505Y-86709004D01*
X192999505Y-86709004D01*
G37*
D12*
X192650000Y-87407800D03*
D11*
G36*
X180655505Y-81840204D02*
G01*
X180679773Y-81843804D01*
X180703572Y-81849765D01*
X180726671Y-81858030D01*
X180748850Y-81868520D01*
X180769893Y-81881132D01*
X180789599Y-81895747D01*
X180807777Y-81912223D01*
X180824253Y-81930401D01*
X180838868Y-81950107D01*
X180851480Y-81971150D01*
X180861970Y-81993329D01*
X180870235Y-82016428D01*
X180876196Y-82040227D01*
X180879796Y-82064495D01*
X180881000Y-82088999D01*
X180881000Y-82739001D01*
X180879796Y-82763505D01*
X180876196Y-82787773D01*
X180870235Y-82811572D01*
X180861970Y-82834671D01*
X180851480Y-82856850D01*
X180838868Y-82877893D01*
X180824253Y-82897599D01*
X180807777Y-82915777D01*
X180789599Y-82932253D01*
X180769893Y-82946868D01*
X180748850Y-82959480D01*
X180726671Y-82969970D01*
X180703572Y-82978235D01*
X180679773Y-82984196D01*
X180655505Y-82987796D01*
X180631001Y-82989000D01*
X179730999Y-82989000D01*
X179706495Y-82987796D01*
X179682227Y-82984196D01*
X179658428Y-82978235D01*
X179635329Y-82969970D01*
X179613150Y-82959480D01*
X179592107Y-82946868D01*
X179572401Y-82932253D01*
X179554223Y-82915777D01*
X179537747Y-82897599D01*
X179523132Y-82877893D01*
X179510520Y-82856850D01*
X179500030Y-82834671D01*
X179491765Y-82811572D01*
X179485804Y-82787773D01*
X179482204Y-82763505D01*
X179481000Y-82739001D01*
X179481000Y-82088999D01*
X179482204Y-82064495D01*
X179485804Y-82040227D01*
X179491765Y-82016428D01*
X179500030Y-81993329D01*
X179510520Y-81971150D01*
X179523132Y-81950107D01*
X179537747Y-81930401D01*
X179554223Y-81912223D01*
X179572401Y-81895747D01*
X179592107Y-81881132D01*
X179613150Y-81868520D01*
X179635329Y-81858030D01*
X179658428Y-81849765D01*
X179682227Y-81843804D01*
X179706495Y-81840204D01*
X179730999Y-81839000D01*
X180631001Y-81839000D01*
X180655505Y-81840204D01*
X180655505Y-81840204D01*
G37*
D12*
X180181000Y-82414000D03*
D11*
G36*
X180655505Y-83890204D02*
G01*
X180679773Y-83893804D01*
X180703572Y-83899765D01*
X180726671Y-83908030D01*
X180748850Y-83918520D01*
X180769893Y-83931132D01*
X180789599Y-83945747D01*
X180807777Y-83962223D01*
X180824253Y-83980401D01*
X180838868Y-84000107D01*
X180851480Y-84021150D01*
X180861970Y-84043329D01*
X180870235Y-84066428D01*
X180876196Y-84090227D01*
X180879796Y-84114495D01*
X180881000Y-84138999D01*
X180881000Y-84789001D01*
X180879796Y-84813505D01*
X180876196Y-84837773D01*
X180870235Y-84861572D01*
X180861970Y-84884671D01*
X180851480Y-84906850D01*
X180838868Y-84927893D01*
X180824253Y-84947599D01*
X180807777Y-84965777D01*
X180789599Y-84982253D01*
X180769893Y-84996868D01*
X180748850Y-85009480D01*
X180726671Y-85019970D01*
X180703572Y-85028235D01*
X180679773Y-85034196D01*
X180655505Y-85037796D01*
X180631001Y-85039000D01*
X179730999Y-85039000D01*
X179706495Y-85037796D01*
X179682227Y-85034196D01*
X179658428Y-85028235D01*
X179635329Y-85019970D01*
X179613150Y-85009480D01*
X179592107Y-84996868D01*
X179572401Y-84982253D01*
X179554223Y-84965777D01*
X179537747Y-84947599D01*
X179523132Y-84927893D01*
X179510520Y-84906850D01*
X179500030Y-84884671D01*
X179491765Y-84861572D01*
X179485804Y-84837773D01*
X179482204Y-84813505D01*
X179481000Y-84789001D01*
X179481000Y-84138999D01*
X179482204Y-84114495D01*
X179485804Y-84090227D01*
X179491765Y-84066428D01*
X179500030Y-84043329D01*
X179510520Y-84021150D01*
X179523132Y-84000107D01*
X179537747Y-83980401D01*
X179554223Y-83962223D01*
X179572401Y-83945747D01*
X179592107Y-83931132D01*
X179613150Y-83918520D01*
X179635329Y-83908030D01*
X179658428Y-83899765D01*
X179682227Y-83893804D01*
X179706495Y-83890204D01*
X179730999Y-83889000D01*
X180631001Y-83889000D01*
X180655505Y-83890204D01*
X180655505Y-83890204D01*
G37*
D12*
X180181000Y-84464000D03*
D11*
G36*
X180655505Y-72315204D02*
G01*
X180679773Y-72318804D01*
X180703572Y-72324765D01*
X180726671Y-72333030D01*
X180748850Y-72343520D01*
X180769893Y-72356132D01*
X180789599Y-72370747D01*
X180807777Y-72387223D01*
X180824253Y-72405401D01*
X180838868Y-72425107D01*
X180851480Y-72446150D01*
X180861970Y-72468329D01*
X180870235Y-72491428D01*
X180876196Y-72515227D01*
X180879796Y-72539495D01*
X180881000Y-72563999D01*
X180881000Y-73214001D01*
X180879796Y-73238505D01*
X180876196Y-73262773D01*
X180870235Y-73286572D01*
X180861970Y-73309671D01*
X180851480Y-73331850D01*
X180838868Y-73352893D01*
X180824253Y-73372599D01*
X180807777Y-73390777D01*
X180789599Y-73407253D01*
X180769893Y-73421868D01*
X180748850Y-73434480D01*
X180726671Y-73444970D01*
X180703572Y-73453235D01*
X180679773Y-73459196D01*
X180655505Y-73462796D01*
X180631001Y-73464000D01*
X179730999Y-73464000D01*
X179706495Y-73462796D01*
X179682227Y-73459196D01*
X179658428Y-73453235D01*
X179635329Y-73444970D01*
X179613150Y-73434480D01*
X179592107Y-73421868D01*
X179572401Y-73407253D01*
X179554223Y-73390777D01*
X179537747Y-73372599D01*
X179523132Y-73352893D01*
X179510520Y-73331850D01*
X179500030Y-73309671D01*
X179491765Y-73286572D01*
X179485804Y-73262773D01*
X179482204Y-73238505D01*
X179481000Y-73214001D01*
X179481000Y-72563999D01*
X179482204Y-72539495D01*
X179485804Y-72515227D01*
X179491765Y-72491428D01*
X179500030Y-72468329D01*
X179510520Y-72446150D01*
X179523132Y-72425107D01*
X179537747Y-72405401D01*
X179554223Y-72387223D01*
X179572401Y-72370747D01*
X179592107Y-72356132D01*
X179613150Y-72343520D01*
X179635329Y-72333030D01*
X179658428Y-72324765D01*
X179682227Y-72318804D01*
X179706495Y-72315204D01*
X179730999Y-72314000D01*
X180631001Y-72314000D01*
X180655505Y-72315204D01*
X180655505Y-72315204D01*
G37*
D12*
X180181000Y-72889000D03*
D11*
G36*
X180655505Y-74365204D02*
G01*
X180679773Y-74368804D01*
X180703572Y-74374765D01*
X180726671Y-74383030D01*
X180748850Y-74393520D01*
X180769893Y-74406132D01*
X180789599Y-74420747D01*
X180807777Y-74437223D01*
X180824253Y-74455401D01*
X180838868Y-74475107D01*
X180851480Y-74496150D01*
X180861970Y-74518329D01*
X180870235Y-74541428D01*
X180876196Y-74565227D01*
X180879796Y-74589495D01*
X180881000Y-74613999D01*
X180881000Y-75264001D01*
X180879796Y-75288505D01*
X180876196Y-75312773D01*
X180870235Y-75336572D01*
X180861970Y-75359671D01*
X180851480Y-75381850D01*
X180838868Y-75402893D01*
X180824253Y-75422599D01*
X180807777Y-75440777D01*
X180789599Y-75457253D01*
X180769893Y-75471868D01*
X180748850Y-75484480D01*
X180726671Y-75494970D01*
X180703572Y-75503235D01*
X180679773Y-75509196D01*
X180655505Y-75512796D01*
X180631001Y-75514000D01*
X179730999Y-75514000D01*
X179706495Y-75512796D01*
X179682227Y-75509196D01*
X179658428Y-75503235D01*
X179635329Y-75494970D01*
X179613150Y-75484480D01*
X179592107Y-75471868D01*
X179572401Y-75457253D01*
X179554223Y-75440777D01*
X179537747Y-75422599D01*
X179523132Y-75402893D01*
X179510520Y-75381850D01*
X179500030Y-75359671D01*
X179491765Y-75336572D01*
X179485804Y-75312773D01*
X179482204Y-75288505D01*
X179481000Y-75264001D01*
X179481000Y-74613999D01*
X179482204Y-74589495D01*
X179485804Y-74565227D01*
X179491765Y-74541428D01*
X179500030Y-74518329D01*
X179510520Y-74496150D01*
X179523132Y-74475107D01*
X179537747Y-74455401D01*
X179554223Y-74437223D01*
X179572401Y-74420747D01*
X179592107Y-74406132D01*
X179613150Y-74393520D01*
X179635329Y-74383030D01*
X179658428Y-74374765D01*
X179682227Y-74368804D01*
X179706495Y-74365204D01*
X179730999Y-74364000D01*
X180631001Y-74364000D01*
X180655505Y-74365204D01*
X180655505Y-74365204D01*
G37*
D12*
X180181000Y-74939000D03*
D11*
G36*
X199572505Y-82359304D02*
G01*
X199596773Y-82362904D01*
X199620572Y-82368865D01*
X199643671Y-82377130D01*
X199665850Y-82387620D01*
X199686893Y-82400232D01*
X199706599Y-82414847D01*
X199724777Y-82431323D01*
X199741253Y-82449501D01*
X199755868Y-82469207D01*
X199768480Y-82490250D01*
X199778970Y-82512429D01*
X199787235Y-82535528D01*
X199793196Y-82559327D01*
X199796796Y-82583595D01*
X199798000Y-82608099D01*
X199798000Y-83508101D01*
X199796796Y-83532605D01*
X199793196Y-83556873D01*
X199787235Y-83580672D01*
X199778970Y-83603771D01*
X199768480Y-83625950D01*
X199755868Y-83646993D01*
X199741253Y-83666699D01*
X199724777Y-83684877D01*
X199706599Y-83701353D01*
X199686893Y-83715968D01*
X199665850Y-83728580D01*
X199643671Y-83739070D01*
X199620572Y-83747335D01*
X199596773Y-83753296D01*
X199572505Y-83756896D01*
X199548001Y-83758100D01*
X198897999Y-83758100D01*
X198873495Y-83756896D01*
X198849227Y-83753296D01*
X198825428Y-83747335D01*
X198802329Y-83739070D01*
X198780150Y-83728580D01*
X198759107Y-83715968D01*
X198739401Y-83701353D01*
X198721223Y-83684877D01*
X198704747Y-83666699D01*
X198690132Y-83646993D01*
X198677520Y-83625950D01*
X198667030Y-83603771D01*
X198658765Y-83580672D01*
X198652804Y-83556873D01*
X198649204Y-83532605D01*
X198648000Y-83508101D01*
X198648000Y-82608099D01*
X198649204Y-82583595D01*
X198652804Y-82559327D01*
X198658765Y-82535528D01*
X198667030Y-82512429D01*
X198677520Y-82490250D01*
X198690132Y-82469207D01*
X198704747Y-82449501D01*
X198721223Y-82431323D01*
X198739401Y-82414847D01*
X198759107Y-82400232D01*
X198780150Y-82387620D01*
X198802329Y-82377130D01*
X198825428Y-82368865D01*
X198849227Y-82362904D01*
X198873495Y-82359304D01*
X198897999Y-82358100D01*
X199548001Y-82358100D01*
X199572505Y-82359304D01*
X199572505Y-82359304D01*
G37*
D12*
X199223000Y-83058100D03*
D11*
G36*
X201622505Y-82359304D02*
G01*
X201646773Y-82362904D01*
X201670572Y-82368865D01*
X201693671Y-82377130D01*
X201715850Y-82387620D01*
X201736893Y-82400232D01*
X201756599Y-82414847D01*
X201774777Y-82431323D01*
X201791253Y-82449501D01*
X201805868Y-82469207D01*
X201818480Y-82490250D01*
X201828970Y-82512429D01*
X201837235Y-82535528D01*
X201843196Y-82559327D01*
X201846796Y-82583595D01*
X201848000Y-82608099D01*
X201848000Y-83508101D01*
X201846796Y-83532605D01*
X201843196Y-83556873D01*
X201837235Y-83580672D01*
X201828970Y-83603771D01*
X201818480Y-83625950D01*
X201805868Y-83646993D01*
X201791253Y-83666699D01*
X201774777Y-83684877D01*
X201756599Y-83701353D01*
X201736893Y-83715968D01*
X201715850Y-83728580D01*
X201693671Y-83739070D01*
X201670572Y-83747335D01*
X201646773Y-83753296D01*
X201622505Y-83756896D01*
X201598001Y-83758100D01*
X200947999Y-83758100D01*
X200923495Y-83756896D01*
X200899227Y-83753296D01*
X200875428Y-83747335D01*
X200852329Y-83739070D01*
X200830150Y-83728580D01*
X200809107Y-83715968D01*
X200789401Y-83701353D01*
X200771223Y-83684877D01*
X200754747Y-83666699D01*
X200740132Y-83646993D01*
X200727520Y-83625950D01*
X200717030Y-83603771D01*
X200708765Y-83580672D01*
X200702804Y-83556873D01*
X200699204Y-83532605D01*
X200698000Y-83508101D01*
X200698000Y-82608099D01*
X200699204Y-82583595D01*
X200702804Y-82559327D01*
X200708765Y-82535528D01*
X200717030Y-82512429D01*
X200727520Y-82490250D01*
X200740132Y-82469207D01*
X200754747Y-82449501D01*
X200771223Y-82431323D01*
X200789401Y-82414847D01*
X200809107Y-82400232D01*
X200830150Y-82387620D01*
X200852329Y-82377130D01*
X200875428Y-82368865D01*
X200899227Y-82362904D01*
X200923495Y-82359304D01*
X200947999Y-82358100D01*
X201598001Y-82358100D01*
X201622505Y-82359304D01*
X201622505Y-82359304D01*
G37*
D12*
X201273000Y-83058100D03*
D11*
G36*
X199572505Y-74739304D02*
G01*
X199596773Y-74742904D01*
X199620572Y-74748865D01*
X199643671Y-74757130D01*
X199665850Y-74767620D01*
X199686893Y-74780232D01*
X199706599Y-74794847D01*
X199724777Y-74811323D01*
X199741253Y-74829501D01*
X199755868Y-74849207D01*
X199768480Y-74870250D01*
X199778970Y-74892429D01*
X199787235Y-74915528D01*
X199793196Y-74939327D01*
X199796796Y-74963595D01*
X199798000Y-74988099D01*
X199798000Y-75888101D01*
X199796796Y-75912605D01*
X199793196Y-75936873D01*
X199787235Y-75960672D01*
X199778970Y-75983771D01*
X199768480Y-76005950D01*
X199755868Y-76026993D01*
X199741253Y-76046699D01*
X199724777Y-76064877D01*
X199706599Y-76081353D01*
X199686893Y-76095968D01*
X199665850Y-76108580D01*
X199643671Y-76119070D01*
X199620572Y-76127335D01*
X199596773Y-76133296D01*
X199572505Y-76136896D01*
X199548001Y-76138100D01*
X198897999Y-76138100D01*
X198873495Y-76136896D01*
X198849227Y-76133296D01*
X198825428Y-76127335D01*
X198802329Y-76119070D01*
X198780150Y-76108580D01*
X198759107Y-76095968D01*
X198739401Y-76081353D01*
X198721223Y-76064877D01*
X198704747Y-76046699D01*
X198690132Y-76026993D01*
X198677520Y-76005950D01*
X198667030Y-75983771D01*
X198658765Y-75960672D01*
X198652804Y-75936873D01*
X198649204Y-75912605D01*
X198648000Y-75888101D01*
X198648000Y-74988099D01*
X198649204Y-74963595D01*
X198652804Y-74939327D01*
X198658765Y-74915528D01*
X198667030Y-74892429D01*
X198677520Y-74870250D01*
X198690132Y-74849207D01*
X198704747Y-74829501D01*
X198721223Y-74811323D01*
X198739401Y-74794847D01*
X198759107Y-74780232D01*
X198780150Y-74767620D01*
X198802329Y-74757130D01*
X198825428Y-74748865D01*
X198849227Y-74742904D01*
X198873495Y-74739304D01*
X198897999Y-74738100D01*
X199548001Y-74738100D01*
X199572505Y-74739304D01*
X199572505Y-74739304D01*
G37*
D12*
X199223000Y-75438100D03*
D11*
G36*
X201622505Y-74739304D02*
G01*
X201646773Y-74742904D01*
X201670572Y-74748865D01*
X201693671Y-74757130D01*
X201715850Y-74767620D01*
X201736893Y-74780232D01*
X201756599Y-74794847D01*
X201774777Y-74811323D01*
X201791253Y-74829501D01*
X201805868Y-74849207D01*
X201818480Y-74870250D01*
X201828970Y-74892429D01*
X201837235Y-74915528D01*
X201843196Y-74939327D01*
X201846796Y-74963595D01*
X201848000Y-74988099D01*
X201848000Y-75888101D01*
X201846796Y-75912605D01*
X201843196Y-75936873D01*
X201837235Y-75960672D01*
X201828970Y-75983771D01*
X201818480Y-76005950D01*
X201805868Y-76026993D01*
X201791253Y-76046699D01*
X201774777Y-76064877D01*
X201756599Y-76081353D01*
X201736893Y-76095968D01*
X201715850Y-76108580D01*
X201693671Y-76119070D01*
X201670572Y-76127335D01*
X201646773Y-76133296D01*
X201622505Y-76136896D01*
X201598001Y-76138100D01*
X200947999Y-76138100D01*
X200923495Y-76136896D01*
X200899227Y-76133296D01*
X200875428Y-76127335D01*
X200852329Y-76119070D01*
X200830150Y-76108580D01*
X200809107Y-76095968D01*
X200789401Y-76081353D01*
X200771223Y-76064877D01*
X200754747Y-76046699D01*
X200740132Y-76026993D01*
X200727520Y-76005950D01*
X200717030Y-75983771D01*
X200708765Y-75960672D01*
X200702804Y-75936873D01*
X200699204Y-75912605D01*
X200698000Y-75888101D01*
X200698000Y-74988099D01*
X200699204Y-74963595D01*
X200702804Y-74939327D01*
X200708765Y-74915528D01*
X200717030Y-74892429D01*
X200727520Y-74870250D01*
X200740132Y-74849207D01*
X200754747Y-74829501D01*
X200771223Y-74811323D01*
X200789401Y-74794847D01*
X200809107Y-74780232D01*
X200830150Y-74767620D01*
X200852329Y-74757130D01*
X200875428Y-74748865D01*
X200899227Y-74742904D01*
X200923495Y-74739304D01*
X200947999Y-74738100D01*
X201598001Y-74738100D01*
X201622505Y-74739304D01*
X201622505Y-74739304D01*
G37*
D12*
X201273000Y-75438100D03*
D11*
G36*
X186649505Y-66770004D02*
G01*
X186673773Y-66773604D01*
X186697572Y-66779565D01*
X186720671Y-66787830D01*
X186742850Y-66798320D01*
X186763893Y-66810932D01*
X186783599Y-66825547D01*
X186801777Y-66842023D01*
X186818253Y-66860201D01*
X186832868Y-66879907D01*
X186845480Y-66900950D01*
X186855970Y-66923129D01*
X186864235Y-66946228D01*
X186870196Y-66970027D01*
X186873796Y-66994295D01*
X186875000Y-67018799D01*
X186875000Y-67918801D01*
X186873796Y-67943305D01*
X186870196Y-67967573D01*
X186864235Y-67991372D01*
X186855970Y-68014471D01*
X186845480Y-68036650D01*
X186832868Y-68057693D01*
X186818253Y-68077399D01*
X186801777Y-68095577D01*
X186783599Y-68112053D01*
X186763893Y-68126668D01*
X186742850Y-68139280D01*
X186720671Y-68149770D01*
X186697572Y-68158035D01*
X186673773Y-68163996D01*
X186649505Y-68167596D01*
X186625001Y-68168800D01*
X185974999Y-68168800D01*
X185950495Y-68167596D01*
X185926227Y-68163996D01*
X185902428Y-68158035D01*
X185879329Y-68149770D01*
X185857150Y-68139280D01*
X185836107Y-68126668D01*
X185816401Y-68112053D01*
X185798223Y-68095577D01*
X185781747Y-68077399D01*
X185767132Y-68057693D01*
X185754520Y-68036650D01*
X185744030Y-68014471D01*
X185735765Y-67991372D01*
X185729804Y-67967573D01*
X185726204Y-67943305D01*
X185725000Y-67918801D01*
X185725000Y-67018799D01*
X185726204Y-66994295D01*
X185729804Y-66970027D01*
X185735765Y-66946228D01*
X185744030Y-66923129D01*
X185754520Y-66900950D01*
X185767132Y-66879907D01*
X185781747Y-66860201D01*
X185798223Y-66842023D01*
X185816401Y-66825547D01*
X185836107Y-66810932D01*
X185857150Y-66798320D01*
X185879329Y-66787830D01*
X185902428Y-66779565D01*
X185926227Y-66773604D01*
X185950495Y-66770004D01*
X185974999Y-66768800D01*
X186625001Y-66768800D01*
X186649505Y-66770004D01*
X186649505Y-66770004D01*
G37*
D12*
X186300000Y-67468800D03*
D11*
G36*
X188699505Y-66770004D02*
G01*
X188723773Y-66773604D01*
X188747572Y-66779565D01*
X188770671Y-66787830D01*
X188792850Y-66798320D01*
X188813893Y-66810932D01*
X188833599Y-66825547D01*
X188851777Y-66842023D01*
X188868253Y-66860201D01*
X188882868Y-66879907D01*
X188895480Y-66900950D01*
X188905970Y-66923129D01*
X188914235Y-66946228D01*
X188920196Y-66970027D01*
X188923796Y-66994295D01*
X188925000Y-67018799D01*
X188925000Y-67918801D01*
X188923796Y-67943305D01*
X188920196Y-67967573D01*
X188914235Y-67991372D01*
X188905970Y-68014471D01*
X188895480Y-68036650D01*
X188882868Y-68057693D01*
X188868253Y-68077399D01*
X188851777Y-68095577D01*
X188833599Y-68112053D01*
X188813893Y-68126668D01*
X188792850Y-68139280D01*
X188770671Y-68149770D01*
X188747572Y-68158035D01*
X188723773Y-68163996D01*
X188699505Y-68167596D01*
X188675001Y-68168800D01*
X188024999Y-68168800D01*
X188000495Y-68167596D01*
X187976227Y-68163996D01*
X187952428Y-68158035D01*
X187929329Y-68149770D01*
X187907150Y-68139280D01*
X187886107Y-68126668D01*
X187866401Y-68112053D01*
X187848223Y-68095577D01*
X187831747Y-68077399D01*
X187817132Y-68057693D01*
X187804520Y-68036650D01*
X187794030Y-68014471D01*
X187785765Y-67991372D01*
X187779804Y-67967573D01*
X187776204Y-67943305D01*
X187775000Y-67918801D01*
X187775000Y-67018799D01*
X187776204Y-66994295D01*
X187779804Y-66970027D01*
X187785765Y-66946228D01*
X187794030Y-66923129D01*
X187804520Y-66900950D01*
X187817132Y-66879907D01*
X187831747Y-66860201D01*
X187848223Y-66842023D01*
X187866401Y-66825547D01*
X187886107Y-66810932D01*
X187907150Y-66798320D01*
X187929329Y-66787830D01*
X187952428Y-66779565D01*
X187976227Y-66773604D01*
X188000495Y-66770004D01*
X188024999Y-66768800D01*
X188675001Y-66768800D01*
X188699505Y-66770004D01*
X188699505Y-66770004D01*
G37*
D12*
X188350000Y-67468800D03*
D11*
G36*
X187968505Y-57530604D02*
G01*
X187992773Y-57534204D01*
X188016572Y-57540165D01*
X188039671Y-57548430D01*
X188061850Y-57558920D01*
X188082893Y-57571532D01*
X188102599Y-57586147D01*
X188120777Y-57602623D01*
X188137253Y-57620801D01*
X188151868Y-57640507D01*
X188164480Y-57661550D01*
X188174970Y-57683729D01*
X188183235Y-57706828D01*
X188189196Y-57730627D01*
X188192796Y-57754895D01*
X188194000Y-57779399D01*
X188194000Y-58679401D01*
X188192796Y-58703905D01*
X188189196Y-58728173D01*
X188183235Y-58751972D01*
X188174970Y-58775071D01*
X188164480Y-58797250D01*
X188151868Y-58818293D01*
X188137253Y-58837999D01*
X188120777Y-58856177D01*
X188102599Y-58872653D01*
X188082893Y-58887268D01*
X188061850Y-58899880D01*
X188039671Y-58910370D01*
X188016572Y-58918635D01*
X187992773Y-58924596D01*
X187968505Y-58928196D01*
X187944001Y-58929400D01*
X187293999Y-58929400D01*
X187269495Y-58928196D01*
X187245227Y-58924596D01*
X187221428Y-58918635D01*
X187198329Y-58910370D01*
X187176150Y-58899880D01*
X187155107Y-58887268D01*
X187135401Y-58872653D01*
X187117223Y-58856177D01*
X187100747Y-58837999D01*
X187086132Y-58818293D01*
X187073520Y-58797250D01*
X187063030Y-58775071D01*
X187054765Y-58751972D01*
X187048804Y-58728173D01*
X187045204Y-58703905D01*
X187044000Y-58679401D01*
X187044000Y-57779399D01*
X187045204Y-57754895D01*
X187048804Y-57730627D01*
X187054765Y-57706828D01*
X187063030Y-57683729D01*
X187073520Y-57661550D01*
X187086132Y-57640507D01*
X187100747Y-57620801D01*
X187117223Y-57602623D01*
X187135401Y-57586147D01*
X187155107Y-57571532D01*
X187176150Y-57558920D01*
X187198329Y-57548430D01*
X187221428Y-57540165D01*
X187245227Y-57534204D01*
X187269495Y-57530604D01*
X187293999Y-57529400D01*
X187944001Y-57529400D01*
X187968505Y-57530604D01*
X187968505Y-57530604D01*
G37*
D12*
X187619000Y-58229400D03*
D11*
G36*
X185918505Y-57530604D02*
G01*
X185942773Y-57534204D01*
X185966572Y-57540165D01*
X185989671Y-57548430D01*
X186011850Y-57558920D01*
X186032893Y-57571532D01*
X186052599Y-57586147D01*
X186070777Y-57602623D01*
X186087253Y-57620801D01*
X186101868Y-57640507D01*
X186114480Y-57661550D01*
X186124970Y-57683729D01*
X186133235Y-57706828D01*
X186139196Y-57730627D01*
X186142796Y-57754895D01*
X186144000Y-57779399D01*
X186144000Y-58679401D01*
X186142796Y-58703905D01*
X186139196Y-58728173D01*
X186133235Y-58751972D01*
X186124970Y-58775071D01*
X186114480Y-58797250D01*
X186101868Y-58818293D01*
X186087253Y-58837999D01*
X186070777Y-58856177D01*
X186052599Y-58872653D01*
X186032893Y-58887268D01*
X186011850Y-58899880D01*
X185989671Y-58910370D01*
X185966572Y-58918635D01*
X185942773Y-58924596D01*
X185918505Y-58928196D01*
X185894001Y-58929400D01*
X185243999Y-58929400D01*
X185219495Y-58928196D01*
X185195227Y-58924596D01*
X185171428Y-58918635D01*
X185148329Y-58910370D01*
X185126150Y-58899880D01*
X185105107Y-58887268D01*
X185085401Y-58872653D01*
X185067223Y-58856177D01*
X185050747Y-58837999D01*
X185036132Y-58818293D01*
X185023520Y-58797250D01*
X185013030Y-58775071D01*
X185004765Y-58751972D01*
X184998804Y-58728173D01*
X184995204Y-58703905D01*
X184994000Y-58679401D01*
X184994000Y-57779399D01*
X184995204Y-57754895D01*
X184998804Y-57730627D01*
X185004765Y-57706828D01*
X185013030Y-57683729D01*
X185023520Y-57661550D01*
X185036132Y-57640507D01*
X185050747Y-57620801D01*
X185067223Y-57602623D01*
X185085401Y-57586147D01*
X185105107Y-57571532D01*
X185126150Y-57558920D01*
X185148329Y-57548430D01*
X185171428Y-57540165D01*
X185195227Y-57534204D01*
X185219495Y-57530604D01*
X185243999Y-57529400D01*
X185894001Y-57529400D01*
X185918505Y-57530604D01*
X185918505Y-57530604D01*
G37*
D12*
X185569000Y-58229400D03*
D11*
G36*
X184536504Y-64213704D02*
G01*
X184560773Y-64217304D01*
X184584571Y-64223265D01*
X184607671Y-64231530D01*
X184629849Y-64242020D01*
X184650893Y-64254633D01*
X184670598Y-64269247D01*
X184688777Y-64285723D01*
X184705253Y-64303902D01*
X184719867Y-64323607D01*
X184732480Y-64344651D01*
X184742970Y-64366829D01*
X184751235Y-64389929D01*
X184757196Y-64413727D01*
X184760796Y-64437996D01*
X184762000Y-64462500D01*
X184762000Y-65712500D01*
X184760796Y-65737004D01*
X184757196Y-65761273D01*
X184751235Y-65785071D01*
X184742970Y-65808171D01*
X184732480Y-65830349D01*
X184719867Y-65851393D01*
X184705253Y-65871098D01*
X184688777Y-65889277D01*
X184670598Y-65905753D01*
X184650893Y-65920367D01*
X184629849Y-65932980D01*
X184607671Y-65943470D01*
X184584571Y-65951735D01*
X184560773Y-65957696D01*
X184536504Y-65961296D01*
X184512000Y-65962500D01*
X183587000Y-65962500D01*
X183562496Y-65961296D01*
X183538227Y-65957696D01*
X183514429Y-65951735D01*
X183491329Y-65943470D01*
X183469151Y-65932980D01*
X183448107Y-65920367D01*
X183428402Y-65905753D01*
X183410223Y-65889277D01*
X183393747Y-65871098D01*
X183379133Y-65851393D01*
X183366520Y-65830349D01*
X183356030Y-65808171D01*
X183347765Y-65785071D01*
X183341804Y-65761273D01*
X183338204Y-65737004D01*
X183337000Y-65712500D01*
X183337000Y-64462500D01*
X183338204Y-64437996D01*
X183341804Y-64413727D01*
X183347765Y-64389929D01*
X183356030Y-64366829D01*
X183366520Y-64344651D01*
X183379133Y-64323607D01*
X183393747Y-64303902D01*
X183410223Y-64285723D01*
X183428402Y-64269247D01*
X183448107Y-64254633D01*
X183469151Y-64242020D01*
X183491329Y-64231530D01*
X183514429Y-64223265D01*
X183538227Y-64217304D01*
X183562496Y-64213704D01*
X183587000Y-64212500D01*
X184512000Y-64212500D01*
X184536504Y-64213704D01*
X184536504Y-64213704D01*
G37*
D18*
X184049500Y-65087500D03*
D11*
G36*
X181561504Y-64213704D02*
G01*
X181585773Y-64217304D01*
X181609571Y-64223265D01*
X181632671Y-64231530D01*
X181654849Y-64242020D01*
X181675893Y-64254633D01*
X181695598Y-64269247D01*
X181713777Y-64285723D01*
X181730253Y-64303902D01*
X181744867Y-64323607D01*
X181757480Y-64344651D01*
X181767970Y-64366829D01*
X181776235Y-64389929D01*
X181782196Y-64413727D01*
X181785796Y-64437996D01*
X181787000Y-64462500D01*
X181787000Y-65712500D01*
X181785796Y-65737004D01*
X181782196Y-65761273D01*
X181776235Y-65785071D01*
X181767970Y-65808171D01*
X181757480Y-65830349D01*
X181744867Y-65851393D01*
X181730253Y-65871098D01*
X181713777Y-65889277D01*
X181695598Y-65905753D01*
X181675893Y-65920367D01*
X181654849Y-65932980D01*
X181632671Y-65943470D01*
X181609571Y-65951735D01*
X181585773Y-65957696D01*
X181561504Y-65961296D01*
X181537000Y-65962500D01*
X180612000Y-65962500D01*
X180587496Y-65961296D01*
X180563227Y-65957696D01*
X180539429Y-65951735D01*
X180516329Y-65943470D01*
X180494151Y-65932980D01*
X180473107Y-65920367D01*
X180453402Y-65905753D01*
X180435223Y-65889277D01*
X180418747Y-65871098D01*
X180404133Y-65851393D01*
X180391520Y-65830349D01*
X180381030Y-65808171D01*
X180372765Y-65785071D01*
X180366804Y-65761273D01*
X180363204Y-65737004D01*
X180362000Y-65712500D01*
X180362000Y-64462500D01*
X180363204Y-64437996D01*
X180366804Y-64413727D01*
X180372765Y-64389929D01*
X180381030Y-64366829D01*
X180391520Y-64344651D01*
X180404133Y-64323607D01*
X180418747Y-64303902D01*
X180435223Y-64285723D01*
X180453402Y-64269247D01*
X180473107Y-64254633D01*
X180494151Y-64242020D01*
X180516329Y-64231530D01*
X180539429Y-64223265D01*
X180563227Y-64217304D01*
X180587496Y-64213704D01*
X180612000Y-64212500D01*
X181537000Y-64212500D01*
X181561504Y-64213704D01*
X181561504Y-64213704D01*
G37*
D18*
X181074500Y-65087500D03*
D11*
G36*
X183936505Y-69945004D02*
G01*
X183960773Y-69948604D01*
X183984572Y-69954565D01*
X184007671Y-69962830D01*
X184029850Y-69973320D01*
X184050893Y-69985932D01*
X184070599Y-70000547D01*
X184088777Y-70017023D01*
X184105253Y-70035201D01*
X184119868Y-70054907D01*
X184132480Y-70075950D01*
X184142970Y-70098129D01*
X184151235Y-70121228D01*
X184157196Y-70145027D01*
X184160796Y-70169295D01*
X184162000Y-70193799D01*
X184162000Y-71093801D01*
X184160796Y-71118305D01*
X184157196Y-71142573D01*
X184151235Y-71166372D01*
X184142970Y-71189471D01*
X184132480Y-71211650D01*
X184119868Y-71232693D01*
X184105253Y-71252399D01*
X184088777Y-71270577D01*
X184070599Y-71287053D01*
X184050893Y-71301668D01*
X184029850Y-71314280D01*
X184007671Y-71324770D01*
X183984572Y-71333035D01*
X183960773Y-71338996D01*
X183936505Y-71342596D01*
X183912001Y-71343800D01*
X183261999Y-71343800D01*
X183237495Y-71342596D01*
X183213227Y-71338996D01*
X183189428Y-71333035D01*
X183166329Y-71324770D01*
X183144150Y-71314280D01*
X183123107Y-71301668D01*
X183103401Y-71287053D01*
X183085223Y-71270577D01*
X183068747Y-71252399D01*
X183054132Y-71232693D01*
X183041520Y-71211650D01*
X183031030Y-71189471D01*
X183022765Y-71166372D01*
X183016804Y-71142573D01*
X183013204Y-71118305D01*
X183012000Y-71093801D01*
X183012000Y-70193799D01*
X183013204Y-70169295D01*
X183016804Y-70145027D01*
X183022765Y-70121228D01*
X183031030Y-70098129D01*
X183041520Y-70075950D01*
X183054132Y-70054907D01*
X183068747Y-70035201D01*
X183085223Y-70017023D01*
X183103401Y-70000547D01*
X183123107Y-69985932D01*
X183144150Y-69973320D01*
X183166329Y-69962830D01*
X183189428Y-69954565D01*
X183213227Y-69948604D01*
X183237495Y-69945004D01*
X183261999Y-69943800D01*
X183912001Y-69943800D01*
X183936505Y-69945004D01*
X183936505Y-69945004D01*
G37*
D12*
X183587000Y-70643800D03*
D11*
G36*
X181886505Y-69945004D02*
G01*
X181910773Y-69948604D01*
X181934572Y-69954565D01*
X181957671Y-69962830D01*
X181979850Y-69973320D01*
X182000893Y-69985932D01*
X182020599Y-70000547D01*
X182038777Y-70017023D01*
X182055253Y-70035201D01*
X182069868Y-70054907D01*
X182082480Y-70075950D01*
X182092970Y-70098129D01*
X182101235Y-70121228D01*
X182107196Y-70145027D01*
X182110796Y-70169295D01*
X182112000Y-70193799D01*
X182112000Y-71093801D01*
X182110796Y-71118305D01*
X182107196Y-71142573D01*
X182101235Y-71166372D01*
X182092970Y-71189471D01*
X182082480Y-71211650D01*
X182069868Y-71232693D01*
X182055253Y-71252399D01*
X182038777Y-71270577D01*
X182020599Y-71287053D01*
X182000893Y-71301668D01*
X181979850Y-71314280D01*
X181957671Y-71324770D01*
X181934572Y-71333035D01*
X181910773Y-71338996D01*
X181886505Y-71342596D01*
X181862001Y-71343800D01*
X181211999Y-71343800D01*
X181187495Y-71342596D01*
X181163227Y-71338996D01*
X181139428Y-71333035D01*
X181116329Y-71324770D01*
X181094150Y-71314280D01*
X181073107Y-71301668D01*
X181053401Y-71287053D01*
X181035223Y-71270577D01*
X181018747Y-71252399D01*
X181004132Y-71232693D01*
X180991520Y-71211650D01*
X180981030Y-71189471D01*
X180972765Y-71166372D01*
X180966804Y-71142573D01*
X180963204Y-71118305D01*
X180962000Y-71093801D01*
X180962000Y-70193799D01*
X180963204Y-70169295D01*
X180966804Y-70145027D01*
X180972765Y-70121228D01*
X180981030Y-70098129D01*
X180991520Y-70075950D01*
X181004132Y-70054907D01*
X181018747Y-70035201D01*
X181035223Y-70017023D01*
X181053401Y-70000547D01*
X181073107Y-69985932D01*
X181094150Y-69973320D01*
X181116329Y-69962830D01*
X181139428Y-69954565D01*
X181163227Y-69948604D01*
X181187495Y-69945004D01*
X181211999Y-69943800D01*
X181862001Y-69943800D01*
X181886505Y-69945004D01*
X181886505Y-69945004D01*
G37*
D12*
X181537000Y-70643800D03*
D11*
G36*
X181886505Y-66770004D02*
G01*
X181910773Y-66773604D01*
X181934572Y-66779565D01*
X181957671Y-66787830D01*
X181979850Y-66798320D01*
X182000893Y-66810932D01*
X182020599Y-66825547D01*
X182038777Y-66842023D01*
X182055253Y-66860201D01*
X182069868Y-66879907D01*
X182082480Y-66900950D01*
X182092970Y-66923129D01*
X182101235Y-66946228D01*
X182107196Y-66970027D01*
X182110796Y-66994295D01*
X182112000Y-67018799D01*
X182112000Y-67918801D01*
X182110796Y-67943305D01*
X182107196Y-67967573D01*
X182101235Y-67991372D01*
X182092970Y-68014471D01*
X182082480Y-68036650D01*
X182069868Y-68057693D01*
X182055253Y-68077399D01*
X182038777Y-68095577D01*
X182020599Y-68112053D01*
X182000893Y-68126668D01*
X181979850Y-68139280D01*
X181957671Y-68149770D01*
X181934572Y-68158035D01*
X181910773Y-68163996D01*
X181886505Y-68167596D01*
X181862001Y-68168800D01*
X181211999Y-68168800D01*
X181187495Y-68167596D01*
X181163227Y-68163996D01*
X181139428Y-68158035D01*
X181116329Y-68149770D01*
X181094150Y-68139280D01*
X181073107Y-68126668D01*
X181053401Y-68112053D01*
X181035223Y-68095577D01*
X181018747Y-68077399D01*
X181004132Y-68057693D01*
X180991520Y-68036650D01*
X180981030Y-68014471D01*
X180972765Y-67991372D01*
X180966804Y-67967573D01*
X180963204Y-67943305D01*
X180962000Y-67918801D01*
X180962000Y-67018799D01*
X180963204Y-66994295D01*
X180966804Y-66970027D01*
X180972765Y-66946228D01*
X180981030Y-66923129D01*
X180991520Y-66900950D01*
X181004132Y-66879907D01*
X181018747Y-66860201D01*
X181035223Y-66842023D01*
X181053401Y-66825547D01*
X181073107Y-66810932D01*
X181094150Y-66798320D01*
X181116329Y-66787830D01*
X181139428Y-66779565D01*
X181163227Y-66773604D01*
X181187495Y-66770004D01*
X181211999Y-66768800D01*
X181862001Y-66768800D01*
X181886505Y-66770004D01*
X181886505Y-66770004D01*
G37*
D12*
X181537000Y-67468800D03*
D11*
G36*
X183936505Y-66770004D02*
G01*
X183960773Y-66773604D01*
X183984572Y-66779565D01*
X184007671Y-66787830D01*
X184029850Y-66798320D01*
X184050893Y-66810932D01*
X184070599Y-66825547D01*
X184088777Y-66842023D01*
X184105253Y-66860201D01*
X184119868Y-66879907D01*
X184132480Y-66900950D01*
X184142970Y-66923129D01*
X184151235Y-66946228D01*
X184157196Y-66970027D01*
X184160796Y-66994295D01*
X184162000Y-67018799D01*
X184162000Y-67918801D01*
X184160796Y-67943305D01*
X184157196Y-67967573D01*
X184151235Y-67991372D01*
X184142970Y-68014471D01*
X184132480Y-68036650D01*
X184119868Y-68057693D01*
X184105253Y-68077399D01*
X184088777Y-68095577D01*
X184070599Y-68112053D01*
X184050893Y-68126668D01*
X184029850Y-68139280D01*
X184007671Y-68149770D01*
X183984572Y-68158035D01*
X183960773Y-68163996D01*
X183936505Y-68167596D01*
X183912001Y-68168800D01*
X183261999Y-68168800D01*
X183237495Y-68167596D01*
X183213227Y-68163996D01*
X183189428Y-68158035D01*
X183166329Y-68149770D01*
X183144150Y-68139280D01*
X183123107Y-68126668D01*
X183103401Y-68112053D01*
X183085223Y-68095577D01*
X183068747Y-68077399D01*
X183054132Y-68057693D01*
X183041520Y-68036650D01*
X183031030Y-68014471D01*
X183022765Y-67991372D01*
X183016804Y-67967573D01*
X183013204Y-67943305D01*
X183012000Y-67918801D01*
X183012000Y-67018799D01*
X183013204Y-66994295D01*
X183016804Y-66970027D01*
X183022765Y-66946228D01*
X183031030Y-66923129D01*
X183041520Y-66900950D01*
X183054132Y-66879907D01*
X183068747Y-66860201D01*
X183085223Y-66842023D01*
X183103401Y-66825547D01*
X183123107Y-66810932D01*
X183144150Y-66798320D01*
X183166329Y-66787830D01*
X183189428Y-66779565D01*
X183213227Y-66773604D01*
X183237495Y-66770004D01*
X183261999Y-66768800D01*
X183912001Y-66768800D01*
X183936505Y-66770004D01*
X183936505Y-66770004D01*
G37*
D12*
X183587000Y-67468800D03*
D11*
G36*
X200068676Y-71120380D02*
G01*
X200092944Y-71123980D01*
X200116743Y-71129941D01*
X200139842Y-71138206D01*
X200162021Y-71148696D01*
X200183064Y-71161308D01*
X200202770Y-71175923D01*
X200220948Y-71192399D01*
X200680569Y-71652020D01*
X200697045Y-71670198D01*
X200711660Y-71689904D01*
X200724272Y-71710947D01*
X200734762Y-71733126D01*
X200743027Y-71756225D01*
X200748988Y-71780024D01*
X200752588Y-71804292D01*
X200753792Y-71828796D01*
X200752588Y-71853300D01*
X200748988Y-71877568D01*
X200743027Y-71901367D01*
X200734762Y-71924466D01*
X200724272Y-71946645D01*
X200711660Y-71967688D01*
X200697045Y-71987394D01*
X200680569Y-72005572D01*
X200044172Y-72641969D01*
X200025994Y-72658445D01*
X200006288Y-72673060D01*
X199985245Y-72685672D01*
X199963066Y-72696162D01*
X199939967Y-72704427D01*
X199916168Y-72710388D01*
X199891900Y-72713988D01*
X199867396Y-72715192D01*
X199842892Y-72713988D01*
X199818624Y-72710388D01*
X199794825Y-72704427D01*
X199771726Y-72696162D01*
X199749547Y-72685672D01*
X199728504Y-72673060D01*
X199708798Y-72658445D01*
X199690620Y-72641969D01*
X199230999Y-72182348D01*
X199214523Y-72164170D01*
X199199908Y-72144464D01*
X199187296Y-72123421D01*
X199176806Y-72101242D01*
X199168541Y-72078143D01*
X199162580Y-72054344D01*
X199158980Y-72030076D01*
X199157776Y-72005572D01*
X199158980Y-71981068D01*
X199162580Y-71956800D01*
X199168541Y-71933001D01*
X199176806Y-71909902D01*
X199187296Y-71887723D01*
X199199908Y-71866680D01*
X199214523Y-71846974D01*
X199230999Y-71828796D01*
X199867396Y-71192399D01*
X199885574Y-71175923D01*
X199905280Y-71161308D01*
X199926323Y-71148696D01*
X199948502Y-71138206D01*
X199971601Y-71129941D01*
X199995400Y-71123980D01*
X200019668Y-71120380D01*
X200044172Y-71119176D01*
X200068676Y-71120380D01*
X200068676Y-71120380D01*
G37*
D12*
X199955784Y-71917184D03*
D11*
G36*
X198619108Y-69670812D02*
G01*
X198643376Y-69674412D01*
X198667175Y-69680373D01*
X198690274Y-69688638D01*
X198712453Y-69699128D01*
X198733496Y-69711740D01*
X198753202Y-69726355D01*
X198771380Y-69742831D01*
X199231001Y-70202452D01*
X199247477Y-70220630D01*
X199262092Y-70240336D01*
X199274704Y-70261379D01*
X199285194Y-70283558D01*
X199293459Y-70306657D01*
X199299420Y-70330456D01*
X199303020Y-70354724D01*
X199304224Y-70379228D01*
X199303020Y-70403732D01*
X199299420Y-70428000D01*
X199293459Y-70451799D01*
X199285194Y-70474898D01*
X199274704Y-70497077D01*
X199262092Y-70518120D01*
X199247477Y-70537826D01*
X199231001Y-70556004D01*
X198594604Y-71192401D01*
X198576426Y-71208877D01*
X198556720Y-71223492D01*
X198535677Y-71236104D01*
X198513498Y-71246594D01*
X198490399Y-71254859D01*
X198466600Y-71260820D01*
X198442332Y-71264420D01*
X198417828Y-71265624D01*
X198393324Y-71264420D01*
X198369056Y-71260820D01*
X198345257Y-71254859D01*
X198322158Y-71246594D01*
X198299979Y-71236104D01*
X198278936Y-71223492D01*
X198259230Y-71208877D01*
X198241052Y-71192401D01*
X197781431Y-70732780D01*
X197764955Y-70714602D01*
X197750340Y-70694896D01*
X197737728Y-70673853D01*
X197727238Y-70651674D01*
X197718973Y-70628575D01*
X197713012Y-70604776D01*
X197709412Y-70580508D01*
X197708208Y-70556004D01*
X197709412Y-70531500D01*
X197713012Y-70507232D01*
X197718973Y-70483433D01*
X197727238Y-70460334D01*
X197737728Y-70438155D01*
X197750340Y-70417112D01*
X197764955Y-70397406D01*
X197781431Y-70379228D01*
X198417828Y-69742831D01*
X198436006Y-69726355D01*
X198455712Y-69711740D01*
X198476755Y-69699128D01*
X198498934Y-69688638D01*
X198522033Y-69680373D01*
X198545832Y-69674412D01*
X198570100Y-69670812D01*
X198594604Y-69669608D01*
X198619108Y-69670812D01*
X198619108Y-69670812D01*
G37*
D12*
X198506216Y-70467616D03*
D11*
G36*
X185664505Y-86613604D02*
G01*
X185688773Y-86617204D01*
X185712572Y-86623165D01*
X185735671Y-86631430D01*
X185757850Y-86641920D01*
X185778893Y-86654532D01*
X185798599Y-86669147D01*
X185816777Y-86685623D01*
X185833253Y-86703801D01*
X185847868Y-86723507D01*
X185860480Y-86744550D01*
X185870970Y-86766729D01*
X185879235Y-86789828D01*
X185885196Y-86813627D01*
X185888796Y-86837895D01*
X185890000Y-86862399D01*
X185890000Y-87762401D01*
X185888796Y-87786905D01*
X185885196Y-87811173D01*
X185879235Y-87834972D01*
X185870970Y-87858071D01*
X185860480Y-87880250D01*
X185847868Y-87901293D01*
X185833253Y-87920999D01*
X185816777Y-87939177D01*
X185798599Y-87955653D01*
X185778893Y-87970268D01*
X185757850Y-87982880D01*
X185735671Y-87993370D01*
X185712572Y-88001635D01*
X185688773Y-88007596D01*
X185664505Y-88011196D01*
X185640001Y-88012400D01*
X184989999Y-88012400D01*
X184965495Y-88011196D01*
X184941227Y-88007596D01*
X184917428Y-88001635D01*
X184894329Y-87993370D01*
X184872150Y-87982880D01*
X184851107Y-87970268D01*
X184831401Y-87955653D01*
X184813223Y-87939177D01*
X184796747Y-87920999D01*
X184782132Y-87901293D01*
X184769520Y-87880250D01*
X184759030Y-87858071D01*
X184750765Y-87834972D01*
X184744804Y-87811173D01*
X184741204Y-87786905D01*
X184740000Y-87762401D01*
X184740000Y-86862399D01*
X184741204Y-86837895D01*
X184744804Y-86813627D01*
X184750765Y-86789828D01*
X184759030Y-86766729D01*
X184769520Y-86744550D01*
X184782132Y-86723507D01*
X184796747Y-86703801D01*
X184813223Y-86685623D01*
X184831401Y-86669147D01*
X184851107Y-86654532D01*
X184872150Y-86641920D01*
X184894329Y-86631430D01*
X184917428Y-86623165D01*
X184941227Y-86617204D01*
X184965495Y-86613604D01*
X184989999Y-86612400D01*
X185640001Y-86612400D01*
X185664505Y-86613604D01*
X185664505Y-86613604D01*
G37*
D12*
X185315000Y-87312400D03*
D11*
G36*
X187714505Y-86613604D02*
G01*
X187738773Y-86617204D01*
X187762572Y-86623165D01*
X187785671Y-86631430D01*
X187807850Y-86641920D01*
X187828893Y-86654532D01*
X187848599Y-86669147D01*
X187866777Y-86685623D01*
X187883253Y-86703801D01*
X187897868Y-86723507D01*
X187910480Y-86744550D01*
X187920970Y-86766729D01*
X187929235Y-86789828D01*
X187935196Y-86813627D01*
X187938796Y-86837895D01*
X187940000Y-86862399D01*
X187940000Y-87762401D01*
X187938796Y-87786905D01*
X187935196Y-87811173D01*
X187929235Y-87834972D01*
X187920970Y-87858071D01*
X187910480Y-87880250D01*
X187897868Y-87901293D01*
X187883253Y-87920999D01*
X187866777Y-87939177D01*
X187848599Y-87955653D01*
X187828893Y-87970268D01*
X187807850Y-87982880D01*
X187785671Y-87993370D01*
X187762572Y-88001635D01*
X187738773Y-88007596D01*
X187714505Y-88011196D01*
X187690001Y-88012400D01*
X187039999Y-88012400D01*
X187015495Y-88011196D01*
X186991227Y-88007596D01*
X186967428Y-88001635D01*
X186944329Y-87993370D01*
X186922150Y-87982880D01*
X186901107Y-87970268D01*
X186881401Y-87955653D01*
X186863223Y-87939177D01*
X186846747Y-87920999D01*
X186832132Y-87901293D01*
X186819520Y-87880250D01*
X186809030Y-87858071D01*
X186800765Y-87834972D01*
X186794804Y-87811173D01*
X186791204Y-87786905D01*
X186790000Y-87762401D01*
X186790000Y-86862399D01*
X186791204Y-86837895D01*
X186794804Y-86813627D01*
X186800765Y-86789828D01*
X186809030Y-86766729D01*
X186819520Y-86744550D01*
X186832132Y-86723507D01*
X186846747Y-86703801D01*
X186863223Y-86685623D01*
X186881401Y-86669147D01*
X186901107Y-86654532D01*
X186922150Y-86641920D01*
X186944329Y-86631430D01*
X186967428Y-86623165D01*
X186991227Y-86617204D01*
X187015495Y-86613604D01*
X187039999Y-86612400D01*
X187690001Y-86612400D01*
X187714505Y-86613604D01*
X187714505Y-86613604D01*
G37*
D12*
X187365000Y-87312400D03*
D19*
X184912000Y-72976500D03*
X185712000Y-72976500D03*
X186512000Y-72976500D03*
X187312000Y-72976500D03*
X188112000Y-72976500D03*
X188912000Y-72976500D03*
X189712000Y-72976500D03*
X190512000Y-72976500D03*
X191312000Y-72976500D03*
X192112000Y-72976500D03*
X192912000Y-72976500D03*
D20*
X194612000Y-74676500D03*
X194612000Y-75476500D03*
X194612000Y-76276500D03*
X194612000Y-77076500D03*
X194612000Y-77876500D03*
X194612000Y-78676500D03*
X194612000Y-79476500D03*
X194612000Y-80276500D03*
X194612000Y-81076500D03*
X194612000Y-81876500D03*
X194612000Y-82676500D03*
D19*
X192912000Y-84376500D03*
X192112000Y-84376500D03*
X191312000Y-84376500D03*
X190512000Y-84376500D03*
X189712000Y-84376500D03*
X188912000Y-84376500D03*
X188112000Y-84376500D03*
X187312000Y-84376500D03*
X186512000Y-84376500D03*
X185712000Y-84376500D03*
X184912000Y-84376500D03*
D20*
X183212000Y-82676500D03*
X183212000Y-81876500D03*
X183212000Y-81076500D03*
X183212000Y-80276500D03*
X183212000Y-79476500D03*
X183212000Y-78676500D03*
X183212000Y-77876500D03*
X183212000Y-77076500D03*
X183212000Y-76276500D03*
X183212000Y-75476500D03*
X183212000Y-74676500D03*
D21*
X201698000Y-80429800D03*
X198798000Y-80429800D03*
X198798000Y-78129800D03*
X201698000Y-78129800D03*
D22*
X201087056Y-58627844D03*
X199390000Y-57924900D03*
X197692944Y-58627844D03*
X196990000Y-60324900D03*
X197692944Y-62021956D03*
X199390000Y-62724900D03*
X201087056Y-62021956D03*
X201790000Y-60324900D03*
D23*
X199390000Y-60324900D03*
X100171000Y-146050000D03*
D22*
X102571000Y-146050000D03*
X101868056Y-147747056D03*
X100171000Y-148450000D03*
X98473944Y-147747056D03*
X97771000Y-146050000D03*
X98473944Y-144352944D03*
X100171000Y-143650000D03*
X101868056Y-144352944D03*
D23*
X114458000Y-74612400D03*
D22*
X116858000Y-74612400D03*
X116155056Y-76309456D03*
X114458000Y-77012400D03*
X112760944Y-76309456D03*
X112058000Y-74612400D03*
X112760944Y-72915344D03*
X114458000Y-72212400D03*
X116155056Y-72915344D03*
X201087056Y-144352944D03*
X199390000Y-143650000D03*
X197692944Y-144352944D03*
X196990000Y-146050000D03*
X197692944Y-147747056D03*
X199390000Y-148450000D03*
X201087056Y-147747056D03*
X201790000Y-146050000D03*
D23*
X199390000Y-146050000D03*
D24*
X180194000Y-61713400D03*
X179394000Y-61713400D03*
X178594000Y-61713400D03*
X177794000Y-61713400D03*
X176994000Y-61713400D03*
D25*
X174944000Y-61713400D03*
X182244000Y-61713400D03*
X182244000Y-57213400D03*
X174944000Y-57213400D03*
D26*
X114458000Y-66737400D03*
X114458000Y-63437400D03*
X114458000Y-85787400D03*
X114458000Y-82487400D03*
X114458000Y-101792000D03*
X114458000Y-105092000D03*
X114458000Y-123887000D03*
X114458000Y-120587000D03*
X123984000Y-139637000D03*
X123984000Y-142937000D03*
X133508000Y-63437400D03*
X133508000Y-66737400D03*
X133508000Y-82487400D03*
X133508000Y-85787400D03*
X133508000Y-105092000D03*
X133508000Y-101792000D03*
X133508000Y-120587000D03*
X133508000Y-123887000D03*
X152558000Y-139637000D03*
X152558000Y-142937000D03*
X152558000Y-66737400D03*
X152558000Y-63437400D03*
X152558000Y-85787400D03*
X152558000Y-82487400D03*
X152558000Y-104837000D03*
X152558000Y-101537000D03*
X152558000Y-123887000D03*
X152558000Y-120587000D03*
X178594000Y-135794000D03*
X178594000Y-132494000D03*
X171608000Y-63437400D03*
X171608000Y-66737400D03*
X171608000Y-92012400D03*
X171608000Y-95312400D03*
X171608000Y-130112000D03*
X171608000Y-133412000D03*
X178594000Y-101027400D03*
X178594000Y-97727400D03*
X178594000Y-115031000D03*
X178594000Y-118331000D03*
D22*
X190554900Y-69769900D03*
X189889800Y-70799300D03*
X190467400Y-74679100D03*
X193249000Y-80688600D03*
X193221200Y-77661300D03*
X185588200Y-80512800D03*
X186099500Y-79447700D03*
X185867100Y-78055500D03*
X184577500Y-77857700D03*
X184597900Y-81689000D03*
X181845300Y-81076500D03*
X179979000Y-68714500D03*
X178731000Y-76025700D03*
X192445700Y-76025700D03*
X185965500Y-82558300D03*
X175072000Y-75861000D03*
X187312000Y-85975500D03*
X185426900Y-88632500D03*
X187210100Y-81528200D03*
X183662000Y-93198600D03*
X191485700Y-74737100D03*
D27*
X188350000Y-67468800D02*
X188112000Y-67706800D01*
X188112000Y-67706800D02*
X188112000Y-72976500D01*
X187801000Y-61594900D02*
X187801000Y-58411400D01*
X187801000Y-58411400D02*
X187619000Y-58229400D01*
X188350000Y-67468800D02*
X187801000Y-66919800D01*
X187801000Y-66919800D02*
X187801000Y-61594900D01*
X182244000Y-57213400D02*
X182347700Y-57109700D01*
X182347700Y-57109700D02*
X186499300Y-57109700D01*
X186499300Y-57109700D02*
X187619000Y-58229400D01*
X182244000Y-59972600D02*
X182244000Y-58954200D01*
X176994000Y-60141300D02*
X177162700Y-59972600D01*
X177162700Y-59972600D02*
X182244000Y-59972600D01*
X182244000Y-61713400D02*
X182244000Y-59972600D01*
X182244000Y-57213400D02*
X182244000Y-58954200D01*
X176994000Y-60141300D02*
X176825300Y-59972600D01*
X176825300Y-59972600D02*
X174944000Y-59972600D01*
X176994000Y-60197600D02*
X176994000Y-60141300D01*
X201087100Y-59622000D02*
X201087100Y-58627800D01*
X201790000Y-60324900D02*
X201087100Y-59622000D01*
X199390000Y-60324900D02*
X200384200Y-60324900D01*
X200384200Y-60324900D02*
X201087100Y-59622000D01*
X196990000Y-62022000D02*
X196509800Y-62022000D01*
X196509800Y-62022000D02*
X191063000Y-67468800D01*
X197692900Y-62022000D02*
X196990000Y-62022000D01*
X196990000Y-62022000D02*
X196990000Y-60324900D01*
X176994000Y-61713400D02*
X176994000Y-60197600D01*
X174944000Y-61713400D02*
X174944000Y-59972600D01*
X198798000Y-80429800D02*
X200238800Y-80429800D01*
X200977600Y-78129800D02*
X200238800Y-78868600D01*
X200238800Y-78868600D02*
X200238800Y-80429800D01*
X201273000Y-75438100D02*
X200977600Y-75733500D01*
X200977600Y-75733500D02*
X200977600Y-78129800D01*
X193598700Y-88509100D02*
X188561700Y-88509100D01*
X188561700Y-88509100D02*
X187365000Y-87312400D01*
X194700000Y-87407800D02*
X193598700Y-88509100D01*
X196709000Y-99100000D02*
X193598700Y-95989700D01*
X193598700Y-95989700D02*
X193598700Y-88509100D01*
X196709000Y-99100000D02*
X195459100Y-100349900D01*
X195459100Y-100349900D02*
X195459100Y-115171100D01*
X195459100Y-115171100D02*
X196850000Y-116562000D01*
X196850000Y-99100000D02*
X196709000Y-99100000D01*
X194700000Y-87305300D02*
X194700000Y-87407800D01*
X177600000Y-80079400D02*
X171600000Y-80079400D01*
X178045400Y-80079400D02*
X177600000Y-80079400D01*
X178045400Y-80079400D02*
X178490800Y-80079400D01*
X180181000Y-75476500D02*
X180181000Y-78389200D01*
X180181000Y-78389200D02*
X178490800Y-80079400D01*
X178490800Y-80079400D02*
X180181000Y-81769600D01*
X180181000Y-81769600D02*
X180181000Y-81876500D01*
X97771000Y-146050000D02*
X98473900Y-145347100D01*
X98473900Y-145347100D02*
X98473900Y-144352900D01*
X99673900Y-143152900D02*
X98611900Y-142090900D01*
X98611900Y-142090900D02*
X98611900Y-100018200D01*
X98611900Y-100018200D02*
X115466400Y-83163700D01*
X115466400Y-83163700D02*
X115466400Y-78020800D01*
X115466400Y-78020800D02*
X114955100Y-77509500D01*
X100171000Y-143650000D02*
X99673900Y-143152900D01*
X98473900Y-144352900D02*
X99673900Y-143152900D01*
X201698000Y-78129800D02*
X200977600Y-78129800D01*
X195752800Y-77076500D02*
X195841100Y-77076500D01*
X195841100Y-77076500D02*
X198580200Y-74337400D01*
X198580200Y-74337400D02*
X200172300Y-74337400D01*
X200172300Y-74337400D02*
X201273000Y-75438100D01*
X180181000Y-74939000D02*
X180181000Y-75476500D01*
X180181000Y-75476500D02*
X182071200Y-75476500D01*
X116155100Y-76309500D02*
X114955100Y-77509500D01*
X116858000Y-74612400D02*
X116858000Y-75606600D01*
X116858000Y-75606600D02*
X116155100Y-76309500D01*
X114955100Y-77509500D02*
X114458000Y-77012400D01*
X194700000Y-87305300D02*
X194975800Y-87305300D01*
X194975800Y-87305300D02*
X199223000Y-83058100D01*
X180181000Y-81876500D02*
X180181000Y-82414000D01*
X180181000Y-81876500D02*
X182071200Y-81876500D01*
X183212000Y-81876500D02*
X182071200Y-81876500D01*
X192912000Y-85517300D02*
X194700000Y-87305300D01*
X196850000Y-116562000D02*
X196951800Y-116562000D01*
X196951800Y-116562000D02*
X198240900Y-117851100D01*
X198240900Y-117851100D02*
X198240900Y-132723700D01*
X198240900Y-132723700D02*
X196939600Y-134025000D01*
X201698000Y-78129800D02*
X203138800Y-78129800D01*
X203138800Y-78129800D02*
X203138800Y-82908800D01*
X203138800Y-82908800D02*
X201876100Y-84171500D01*
X201876100Y-84171500D02*
X200336400Y-84171500D01*
X200336400Y-84171500D02*
X199223000Y-83058100D01*
X196939600Y-134025000D02*
X196850000Y-134025000D01*
X199390000Y-143650000D02*
X199390000Y-136475400D01*
X199390000Y-136475400D02*
X196939600Y-134025000D01*
X201087100Y-62022000D02*
X201273000Y-62207900D01*
X201273000Y-62207900D02*
X201273000Y-75438100D01*
X201790000Y-60324900D02*
X201087100Y-61027800D01*
X201087100Y-61027800D02*
X201087100Y-62022000D01*
X180181000Y-74939000D02*
X176994000Y-71752000D01*
X176994000Y-71752000D02*
X176994000Y-61713400D01*
X188350000Y-67468800D02*
X191063000Y-67468800D01*
X194612000Y-77076500D02*
X195752800Y-77076500D01*
X192912000Y-84376500D02*
X192912000Y-85517300D01*
X182787000Y-75476500D02*
X183212000Y-75476500D01*
X182787000Y-75476500D02*
X182071200Y-75476500D01*
X196990000Y-146050000D02*
X197692900Y-145347100D01*
X197692900Y-145347100D02*
X197692900Y-144352900D01*
X197692900Y-147747100D02*
X196990000Y-147044200D01*
X196990000Y-147044200D02*
X196990000Y-146050000D01*
X201790000Y-146050000D02*
X201087100Y-145347100D01*
X201087100Y-145347100D02*
X201087100Y-144352900D01*
X201790000Y-146050000D02*
X201087100Y-146752900D01*
X201087100Y-146752900D02*
X201087100Y-147747100D01*
X101868100Y-147747100D02*
X102571000Y-147044200D01*
X102571000Y-147044200D02*
X102571000Y-146050000D01*
X101868100Y-144352900D02*
X102571000Y-145055800D01*
X102571000Y-145055800D02*
X102571000Y-146050000D01*
X116155100Y-72915300D02*
X116858000Y-73618200D01*
X116858000Y-73618200D02*
X116858000Y-74612400D01*
D28*
X192912000Y-84376500D02*
X195342550Y-84376500D01*
X164624000Y-88582400D02*
X164624000Y-60007400D01*
X192912000Y-72976500D02*
X192912000Y-71899200D01*
X192912000Y-71899200D02*
X192684200Y-71899200D01*
X192684200Y-71899200D02*
X190554900Y-69769900D01*
X191312000Y-72976500D02*
X191312000Y-71899200D01*
X191312000Y-71899200D02*
X190989700Y-71899200D01*
X190989700Y-71899200D02*
X189889800Y-70799300D01*
X126524000Y-98107400D02*
X126524000Y-79057400D01*
X190512000Y-72976500D02*
X190512000Y-74053800D01*
X190512000Y-74053800D02*
X190467400Y-74098400D01*
X190467400Y-74098400D02*
X190467400Y-74679100D01*
X107474000Y-117157000D02*
X107474000Y-98107400D01*
X107474000Y-79057400D02*
X107474000Y-60007400D01*
X180194000Y-61713400D02*
X180194000Y-64207000D01*
X180194000Y-64207000D02*
X181074500Y-65087500D01*
X194612000Y-80276500D02*
X193534700Y-80276500D01*
X193534700Y-80276500D02*
X193534700Y-80402900D01*
X193534700Y-80402900D02*
X193249000Y-80688600D01*
X193534700Y-79476500D02*
X193534700Y-77974800D01*
X193534700Y-77974800D02*
X193221200Y-77661300D01*
X194612000Y-79476500D02*
X193534700Y-79476500D01*
X183212000Y-79476500D02*
X184551900Y-79476500D01*
X184551900Y-79476500D02*
X185588200Y-80512800D01*
X183212000Y-78676500D02*
X185328300Y-78676500D01*
X185328300Y-78676500D02*
X186099500Y-79447700D01*
X183212000Y-77076500D02*
X184289300Y-77076500D01*
X184289300Y-77076500D02*
X184888100Y-77076500D01*
X184888100Y-77076500D02*
X185867100Y-78055500D01*
X183212000Y-77876500D02*
X184558700Y-77876500D01*
X184558700Y-77876500D02*
X184577500Y-77857700D01*
X184289300Y-80276500D02*
X184289300Y-81380400D01*
X184289300Y-81380400D02*
X184597900Y-81689000D01*
X183212000Y-80276500D02*
X184289300Y-80276500D01*
X183212000Y-81076500D02*
X181845300Y-81076500D01*
X178594000Y-132494000D02*
X181381000Y-132494000D01*
X181381000Y-132494000D02*
X182350000Y-131525000D01*
X178594000Y-97727400D02*
X181222600Y-97727400D01*
X181222600Y-97727400D02*
X182350000Y-96600000D01*
X178594000Y-115031000D02*
X181381000Y-115031000D01*
X181381000Y-115031000D02*
X182350000Y-114062000D01*
D27*
X180181000Y-72889000D02*
X179979000Y-72687000D01*
X179979000Y-72687000D02*
X179979000Y-68714500D01*
X186382900Y-81708000D02*
X186382900Y-81857200D01*
X186382900Y-81857200D02*
X186846200Y-82320500D01*
X186846200Y-82320500D02*
X190586500Y-82320500D01*
X190586500Y-82320500D02*
X190819000Y-82088000D01*
X184352800Y-82676500D02*
X184729000Y-82676500D01*
X184729000Y-82676500D02*
X185697500Y-81708000D01*
X185697500Y-81708000D02*
X186382900Y-81708000D01*
X186382900Y-81708000D02*
X186382900Y-80300500D01*
X186382900Y-80300500D02*
X186890400Y-79793000D01*
X186890400Y-79793000D02*
X186890400Y-74117300D01*
X186890400Y-74117300D02*
X189712000Y-74117300D01*
X185712000Y-74117300D02*
X186890400Y-74117300D01*
X189712000Y-72976500D02*
X189712000Y-74117300D01*
X185712000Y-73971900D02*
X185712000Y-74117300D01*
X185712000Y-74117300D02*
X184912000Y-74117300D01*
X184912000Y-74117300D02*
X184352800Y-74676500D01*
X185261000Y-61594900D02*
X185569000Y-61286900D01*
X185569000Y-61286900D02*
X185569000Y-58229400D01*
X185261000Y-61594900D02*
X185261000Y-63876000D01*
X185261000Y-63876000D02*
X184049500Y-65087500D01*
X185712000Y-72976500D02*
X185712000Y-73971900D01*
X184049500Y-65087500D02*
X186300000Y-67338000D01*
X186300000Y-67338000D02*
X186300000Y-67468800D01*
X190819000Y-82088000D02*
X190819000Y-78928700D01*
X190819000Y-78928700D02*
X193471200Y-76276500D01*
X192112000Y-83381000D02*
X190819000Y-82088000D01*
X194612000Y-76276500D02*
X195752800Y-76276500D01*
X194612000Y-76276500D02*
X193471200Y-76276500D01*
X199955800Y-71917200D02*
X199955800Y-72073500D01*
X199955800Y-72073500D02*
X195752800Y-76276500D01*
X192112000Y-84376500D02*
X192112000Y-83381000D01*
X183212000Y-82676500D02*
X184352800Y-82676500D01*
X192650000Y-87407800D02*
X192112000Y-86869800D01*
X192112000Y-86869800D02*
X192112000Y-84376500D01*
X180181000Y-72889000D02*
X180283700Y-72889000D01*
X180283700Y-72889000D02*
X182071200Y-74676500D01*
X183212000Y-74676500D02*
X184352800Y-74676500D01*
X182071200Y-82676500D02*
X180283700Y-84464000D01*
X180283700Y-84464000D02*
X180181000Y-84464000D01*
X183212000Y-82676500D02*
X182071200Y-82676500D01*
X183212000Y-74676500D02*
X182071200Y-74676500D01*
D28*
X179394000Y-61713400D02*
X179394000Y-65325800D01*
X179394000Y-65325800D02*
X181537000Y-67468800D01*
X178594000Y-61713400D02*
X178594000Y-66264500D01*
X178594000Y-66264500D02*
X181537000Y-69207500D01*
X181537000Y-69207500D02*
X181537000Y-70643800D01*
X187312000Y-72976500D02*
X187312000Y-71899200D01*
X187312000Y-71899200D02*
X186056600Y-70643800D01*
X186056600Y-70643800D02*
X183587000Y-70643800D01*
X186512000Y-72976500D02*
X186512000Y-71899200D01*
X186512000Y-71899200D02*
X183243400Y-71899200D01*
X183243400Y-71899200D02*
X182676000Y-71331800D01*
X182676000Y-71331800D02*
X182676000Y-68379800D01*
X182676000Y-68379800D02*
X183587000Y-67468800D01*
X177600000Y-76329400D02*
X176772700Y-76329400D01*
X171600000Y-76329400D02*
X172427300Y-76329400D01*
X172427300Y-76329400D02*
X172686200Y-76588300D01*
X172686200Y-76588300D02*
X176513800Y-76588300D01*
X176513800Y-76588300D02*
X176772700Y-76329400D01*
X194612000Y-75476500D02*
X195689300Y-75476500D01*
X195689300Y-75476500D02*
X195689300Y-73284500D01*
X195689300Y-73284500D02*
X198506200Y-70467600D01*
X192445700Y-76025700D02*
X192994900Y-75476500D01*
X192994900Y-75476500D02*
X194612000Y-75476500D01*
X178731000Y-76025700D02*
X178427300Y-76329400D01*
X177600000Y-76329400D02*
X178427300Y-76329400D01*
X184912000Y-84376500D02*
X184912000Y-86909400D01*
X184912000Y-86909400D02*
X185315000Y-87312400D01*
X200997500Y-82357600D02*
X200577800Y-81937900D01*
X200577800Y-81937900D02*
X197849100Y-81937900D01*
X197849100Y-81937900D02*
X195689300Y-79778100D01*
X195689300Y-79778100D02*
X195689300Y-78676500D01*
X201273000Y-83058100D02*
X201273000Y-82633100D01*
X201273000Y-82633100D02*
X200997500Y-82357600D01*
X201698000Y-81657100D02*
X200997500Y-82357600D01*
X201698000Y-80429800D02*
X201698000Y-81657100D01*
X194612000Y-78676500D02*
X195689300Y-78676500D01*
X198798000Y-78129800D02*
X197420700Y-78129800D01*
X194612000Y-77876500D02*
X197167400Y-77876500D01*
X197167400Y-77876500D02*
X197420700Y-78129800D01*
X198798000Y-78129800D02*
X198798000Y-75863100D01*
X198798000Y-75863100D02*
X199223000Y-75438100D01*
X188912000Y-72976500D02*
X188912000Y-70351900D01*
X188912000Y-70351900D02*
X190422800Y-68841100D01*
X190422800Y-68841100D02*
X191740700Y-68841100D01*
X191740700Y-68841100D02*
X193113000Y-67468800D01*
X114458000Y-66737400D02*
X115385300Y-66737400D01*
X133508000Y-66387400D02*
X132416200Y-67479200D01*
X132416200Y-67479200D02*
X116127100Y-67479200D01*
X116127100Y-67479200D02*
X115385300Y-66737400D01*
X133508000Y-66387400D02*
X133508000Y-65960100D01*
X133508000Y-66737400D02*
X133508000Y-66387400D01*
X152908100Y-65304700D02*
X146175100Y-58571700D01*
X146175100Y-58571700D02*
X144991000Y-58571700D01*
X144991000Y-58571700D02*
X140706600Y-62856100D01*
X140706600Y-62856100D02*
X140706600Y-63135900D01*
X140706600Y-63135900D02*
X139867700Y-63974800D01*
X139867700Y-63974800D02*
X138569700Y-63974800D01*
X138569700Y-63974800D02*
X138472900Y-63878000D01*
X138472900Y-63878000D02*
X135590100Y-63878000D01*
X135590100Y-63878000D02*
X133508000Y-65960100D01*
X152558000Y-66348700D02*
X152908100Y-65998600D01*
X152908100Y-65998600D02*
X152908100Y-65304700D01*
X152908100Y-65304700D02*
X154366500Y-63846300D01*
X154366500Y-63846300D02*
X157428100Y-63846300D01*
X157428100Y-63846300D02*
X157594200Y-64012400D01*
X157594200Y-64012400D02*
X158831000Y-64012400D01*
X158831000Y-64012400D02*
X162879600Y-59963800D01*
X162879600Y-59963800D02*
X162879600Y-59704200D01*
X162879600Y-59704200D02*
X164004000Y-58579800D01*
X164004000Y-58579800D02*
X165217400Y-58579800D01*
X165217400Y-58579800D02*
X171608000Y-64970400D01*
X171608000Y-64970400D02*
X171608000Y-66737400D01*
X152558000Y-66737400D02*
X152558000Y-66348700D01*
X171608000Y-66737400D02*
X171608000Y-72397000D01*
X171608000Y-72397000D02*
X175072000Y-75861000D01*
X185965500Y-82558300D02*
X186245500Y-82838300D01*
X186245500Y-82838300D02*
X188451100Y-82838300D01*
X188451100Y-82838300D02*
X188912000Y-83299200D01*
X188912000Y-84376500D02*
X188912000Y-83299200D01*
X114458000Y-63437400D02*
X114458000Y-62660100D01*
X101124000Y-62547400D02*
X105099800Y-58571600D01*
X105099800Y-58571600D02*
X110369500Y-58571600D01*
X110369500Y-58571600D02*
X114458000Y-62660100D01*
X151245000Y-86173100D02*
X151630700Y-85787400D01*
X134435300Y-85787400D02*
X135121000Y-86473100D01*
X135121000Y-86473100D02*
X150945000Y-86473100D01*
X150945000Y-86473100D02*
X151245000Y-86173100D01*
X151245000Y-86173100D02*
X161070200Y-95998300D01*
X161070200Y-95998300D02*
X169994800Y-95998300D01*
X169994800Y-95998300D02*
X170680700Y-95312400D01*
X171608000Y-95312400D02*
X170680700Y-95312400D01*
X188112000Y-84376500D02*
X188112000Y-83299200D01*
X171608000Y-95312400D02*
X171608000Y-94535100D01*
X171608000Y-94535100D02*
X172385300Y-94535100D01*
X172385300Y-94535100D02*
X183621200Y-83299200D01*
X183621200Y-83299200D02*
X188112000Y-83299200D01*
X133508000Y-85787400D02*
X134435300Y-85787400D01*
X133508000Y-85787400D02*
X133508000Y-85010100D01*
X133508000Y-85010100D02*
X131565800Y-83067900D01*
X131565800Y-83067900D02*
X131565800Y-82013700D01*
X131565800Y-82013700D02*
X127136300Y-77584200D01*
X127136300Y-77584200D02*
X125975900Y-77584200D01*
X125975900Y-77584200D02*
X121656600Y-81903500D01*
X121656600Y-81903500D02*
X121656600Y-82183900D01*
X121656600Y-82183900D02*
X120815700Y-83024800D01*
X120815700Y-83024800D02*
X119519700Y-83024800D01*
X119519700Y-83024800D02*
X119422900Y-82928000D01*
X119422900Y-82928000D02*
X116540100Y-82928000D01*
X116540100Y-82928000D02*
X114458000Y-85010100D01*
X152558000Y-85787400D02*
X151630700Y-85787400D01*
X114458000Y-85787400D02*
X114458000Y-85010100D01*
X114458000Y-82487400D02*
X114458000Y-81710100D01*
X114458000Y-81710100D02*
X101236700Y-81710100D01*
X101236700Y-81710100D02*
X101124000Y-81597400D01*
X114458000Y-101792000D02*
X114458000Y-101014700D01*
X114458000Y-101014700D02*
X110102100Y-96658800D01*
X110102100Y-96658800D02*
X105112600Y-96658800D01*
X105112600Y-96658800D02*
X101124000Y-100647400D01*
X183692100Y-92200100D02*
X182151500Y-92200100D01*
X182151500Y-92200100D02*
X169514600Y-104837000D01*
X169514600Y-104837000D02*
X152558000Y-104837000D01*
X171608000Y-132634700D02*
X172535300Y-131707400D01*
X172535300Y-131707400D02*
X172535300Y-109257400D01*
X172535300Y-109257400D02*
X184399500Y-97393200D01*
X184399500Y-97393200D02*
X184399500Y-92907500D01*
X184399500Y-92907500D02*
X183692100Y-92200100D01*
X183692100Y-92200100D02*
X183692100Y-90367300D01*
X183692100Y-90367300D02*
X185426900Y-88632500D01*
X187312000Y-84376500D02*
X187312000Y-85975500D01*
X152558000Y-104837000D02*
X151630700Y-104837000D01*
X151630700Y-104837000D02*
X150950800Y-105516900D01*
X150950800Y-105516900D02*
X134860200Y-105516900D01*
X134860200Y-105516900D02*
X134435300Y-105092000D01*
X133508000Y-105092000D02*
X134435300Y-105092000D01*
X171608000Y-133412000D02*
X171608000Y-132634700D01*
X133508000Y-105092000D02*
X132580700Y-105092000D01*
X114458000Y-105092000D02*
X115385300Y-105092000D01*
X115385300Y-105092000D02*
X115818200Y-105524900D01*
X115818200Y-105524900D02*
X132147800Y-105524900D01*
X132147800Y-105524900D02*
X132580700Y-105092000D01*
X194612000Y-74676500D02*
X192757600Y-74676500D01*
X192757600Y-74676500D02*
X187210100Y-80224000D01*
X187210100Y-80224000D02*
X187210100Y-81528200D01*
X178594000Y-101221700D02*
X179678100Y-101221700D01*
X179678100Y-101221700D02*
X183677400Y-97222400D01*
X183677400Y-97222400D02*
X183677400Y-93214000D01*
X183677400Y-93214000D02*
X183662000Y-93198600D01*
X178594000Y-101221700D02*
X178594000Y-101416000D01*
X178594000Y-101027400D02*
X178594000Y-101221700D01*
X178594000Y-101416000D02*
X156123000Y-123887000D01*
X156123000Y-123887000D02*
X152558000Y-123887000D01*
X152558000Y-123887000D02*
X151630700Y-123887000D01*
X133508000Y-123887000D02*
X134435300Y-123887000D01*
X134435300Y-123887000D02*
X135121000Y-124572700D01*
X135121000Y-124572700D02*
X150945000Y-124572700D01*
X150945000Y-124572700D02*
X151630700Y-123887000D01*
X133044400Y-123887000D02*
X133508000Y-123887000D01*
X133044400Y-123887000D02*
X132580700Y-123887000D01*
X114458000Y-123887000D02*
X115385300Y-123887000D01*
X132580700Y-123887000D02*
X131867800Y-124599900D01*
X131867800Y-124599900D02*
X116098200Y-124599900D01*
X116098200Y-124599900D02*
X115385300Y-123887000D01*
X114458000Y-120587000D02*
X114458000Y-119809700D01*
X114458000Y-119809700D02*
X101236700Y-119809700D01*
X101236700Y-119809700D02*
X101124000Y-119697000D01*
X123984000Y-139637000D02*
X123984000Y-138859700D01*
X123984000Y-138859700D02*
X110760700Y-138859700D01*
X110760700Y-138859700D02*
X110648000Y-138747000D01*
X186512000Y-84376500D02*
X186512000Y-85453800D01*
X178594000Y-118719600D02*
X179599800Y-118719600D01*
X179599800Y-118719600D02*
X186314400Y-112005000D01*
X186314400Y-112005000D02*
X186314400Y-85651400D01*
X186314400Y-85651400D02*
X186512000Y-85453800D01*
X178594000Y-118719600D02*
X178594000Y-119108300D01*
X178594000Y-118331000D02*
X178594000Y-118719600D01*
X177666600Y-134089300D02*
X178594000Y-135016700D01*
X152558000Y-142937000D02*
X168818900Y-142937000D01*
X168818900Y-142937000D02*
X177666600Y-134089300D01*
X178594000Y-119108300D02*
X177666600Y-120035700D01*
X177666600Y-120035700D02*
X177666600Y-134089300D01*
X152094400Y-142937000D02*
X152558000Y-142937000D01*
X178594000Y-135794000D02*
X178594000Y-135016700D01*
X152094400Y-142937000D02*
X151630700Y-142937000D01*
X123984000Y-142937000D02*
X124911300Y-142937000D01*
X124911300Y-142937000D02*
X125645400Y-143671100D01*
X125645400Y-143671100D02*
X150896600Y-143671100D01*
X150896600Y-143671100D02*
X151630700Y-142937000D01*
X133508000Y-63437400D02*
X133508000Y-62660100D01*
X133508000Y-62660100D02*
X120286700Y-62660100D01*
X120286700Y-62660100D02*
X120174000Y-62547400D01*
X133508000Y-81710100D02*
X128927800Y-77129900D01*
X128927800Y-77129900D02*
X124641500Y-77129900D01*
X124641500Y-77129900D02*
X120174000Y-81597400D01*
X133508000Y-82487400D02*
X133508000Y-81710100D01*
X133508000Y-101792000D02*
X133508000Y-101014700D01*
X133508000Y-101014700D02*
X133140700Y-100647400D01*
X133140700Y-100647400D02*
X120174000Y-100647400D01*
X133508000Y-120587000D02*
X133508000Y-119809700D01*
X133508000Y-119809700D02*
X120286700Y-119809700D01*
X120286700Y-119809700D02*
X120174000Y-119697000D01*
X152558000Y-139637000D02*
X152558000Y-138859700D01*
X152558000Y-138859700D02*
X139336700Y-138859700D01*
X139336700Y-138859700D02*
X139224000Y-138747000D01*
X152558000Y-62660100D02*
X148015200Y-58117300D01*
X148015200Y-58117300D02*
X143654100Y-58117300D01*
X143654100Y-58117300D02*
X139224000Y-62547400D01*
X152558000Y-63437400D02*
X152558000Y-62660100D01*
X152558000Y-82487400D02*
X152558000Y-81710100D01*
X152558000Y-81710100D02*
X139336700Y-81710100D01*
X139336700Y-81710100D02*
X139224000Y-81597400D01*
X152558000Y-101537000D02*
X152558000Y-100759700D01*
X152558000Y-100759700D02*
X139336300Y-100759700D01*
X139336300Y-100759700D02*
X139224000Y-100647400D01*
X152558000Y-120587000D02*
X152558000Y-119809700D01*
X152558000Y-119809700D02*
X139336700Y-119809700D01*
X139336700Y-119809700D02*
X139224000Y-119697000D01*
X171608000Y-62660100D02*
X167073400Y-58125500D01*
X167073400Y-58125500D02*
X162695900Y-58125500D01*
X162695900Y-58125500D02*
X158274000Y-62547400D01*
X171608000Y-63437400D02*
X171608000Y-62660100D01*
X171608000Y-92012400D02*
X171608000Y-91235100D01*
X171608000Y-91235100D02*
X158386700Y-91235100D01*
X158386700Y-91235100D02*
X158274000Y-91122400D01*
X158274000Y-129222000D02*
X171307100Y-129222000D01*
X171307100Y-129222000D02*
X171608000Y-129522900D01*
X171608000Y-130112000D02*
X171608000Y-129522900D01*
X192112000Y-74053800D02*
X191485700Y-74680100D01*
X191485700Y-74680100D02*
X191485700Y-74737100D01*
X192112000Y-72976500D02*
X192112000Y-74053800D01*
X145574000Y-79057400D02*
X145574000Y-60007400D01*
G36*
X203492250Y-85915450D02*
G01*
X194595500Y-85915450D01*
X194595500Y-83758100D01*
X198009928Y-83758100D01*
X198022188Y-83882582D01*
X198058498Y-84002280D01*
X198117463Y-84112594D01*
X198196815Y-84209285D01*
X198293506Y-84288637D01*
X198403820Y-84347602D01*
X198523518Y-84383912D01*
X198648000Y-84396172D01*
X198937250Y-84393100D01*
X199096000Y-84234350D01*
X199096000Y-83185100D01*
X198171750Y-83185100D01*
X198013000Y-83343850D01*
X198009928Y-83758100D01*
X194595500Y-83758100D01*
X194595500Y-83589572D01*
X195362000Y-83589572D01*
X195486482Y-83577312D01*
X195606180Y-83541002D01*
X195716494Y-83482037D01*
X195813185Y-83402685D01*
X195892537Y-83305994D01*
X195951502Y-83195680D01*
X195987812Y-83075982D01*
X196000072Y-82951500D01*
X196000072Y-82401500D01*
X195987812Y-82277018D01*
X195987655Y-82276500D01*
X195987812Y-82275982D01*
X196000072Y-82151500D01*
X196000072Y-81601500D01*
X195987812Y-81477018D01*
X195987655Y-81476500D01*
X195987812Y-81475982D01*
X196000072Y-81351500D01*
X196000072Y-81166502D01*
X197283820Y-82450251D01*
X197307678Y-82479322D01*
X197423708Y-82574545D01*
X197556085Y-82645302D01*
X197699722Y-82688874D01*
X197811674Y-82699900D01*
X197811676Y-82699900D01*
X197849099Y-82703586D01*
X197886522Y-82699900D01*
X198012463Y-82699900D01*
X198013000Y-82772350D01*
X198171750Y-82931100D01*
X199096000Y-82931100D01*
X199096000Y-82911100D01*
X199350000Y-82911100D01*
X199350000Y-82931100D01*
X199370000Y-82931100D01*
X199370000Y-83185100D01*
X199350000Y-83185100D01*
X199350000Y-84234350D01*
X199508750Y-84393100D01*
X199798000Y-84396172D01*
X199922482Y-84383912D01*
X200042180Y-84347602D01*
X200152494Y-84288637D01*
X200249185Y-84209285D01*
X200314658Y-84129506D01*
X200320038Y-84136062D01*
X200454613Y-84246505D01*
X200608149Y-84328572D01*
X200774745Y-84379108D01*
X200947999Y-84396172D01*
X201598001Y-84396172D01*
X201771255Y-84379108D01*
X201937851Y-84328572D01*
X202091387Y-84246505D01*
X202225962Y-84136062D01*
X202336405Y-84001487D01*
X202418472Y-83847951D01*
X202469008Y-83681355D01*
X202486072Y-83508101D01*
X202486072Y-82608099D01*
X202469008Y-82434845D01*
X202418472Y-82268249D01*
X202336405Y-82114713D01*
X202322304Y-82097531D01*
X202334645Y-82082493D01*
X202390865Y-81977312D01*
X202395911Y-81967872D01*
X202748000Y-81967872D01*
X202872482Y-81955612D01*
X202992180Y-81919302D01*
X203102494Y-81860337D01*
X203199185Y-81780985D01*
X203278537Y-81684294D01*
X203337502Y-81573980D01*
X203373812Y-81454282D01*
X203386072Y-81329800D01*
X203386072Y-79529800D01*
X203373812Y-79405318D01*
X203337502Y-79285620D01*
X203334391Y-79279800D01*
X203337502Y-79273980D01*
X203373812Y-79154282D01*
X203386072Y-79029800D01*
X203383000Y-78415550D01*
X203224250Y-78256800D01*
X201825000Y-78256800D01*
X201825000Y-78276800D01*
X201571000Y-78276800D01*
X201571000Y-78256800D01*
X201551000Y-78256800D01*
X201551000Y-78002800D01*
X201571000Y-78002800D01*
X201571000Y-77982800D01*
X201825000Y-77982800D01*
X201825000Y-78002800D01*
X203224250Y-78002800D01*
X203383000Y-77844050D01*
X203386072Y-77229800D01*
X203373812Y-77105318D01*
X203337502Y-76985620D01*
X203278537Y-76875306D01*
X203199185Y-76778615D01*
X203102494Y-76699263D01*
X202992180Y-76640298D01*
X202872482Y-76603988D01*
X202748000Y-76591728D01*
X202293984Y-76593553D01*
X202299185Y-76589285D01*
X202378537Y-76492594D01*
X202437502Y-76382280D01*
X202473812Y-76262582D01*
X202486072Y-76138100D01*
X202483000Y-75723850D01*
X202324250Y-75565100D01*
X201400000Y-75565100D01*
X201400000Y-75585100D01*
X201146000Y-75585100D01*
X201146000Y-75565100D01*
X201126000Y-75565100D01*
X201126000Y-75311100D01*
X201146000Y-75311100D01*
X201146000Y-74261850D01*
X201400000Y-74261850D01*
X201400000Y-75311100D01*
X202324250Y-75311100D01*
X202483000Y-75152350D01*
X202486072Y-74738100D01*
X202473812Y-74613618D01*
X202437502Y-74493920D01*
X202378537Y-74383606D01*
X202299185Y-74286915D01*
X202202494Y-74207563D01*
X202092180Y-74148598D01*
X201972482Y-74112288D01*
X201848000Y-74100028D01*
X201558750Y-74103100D01*
X201400000Y-74261850D01*
X201146000Y-74261850D01*
X200987250Y-74103100D01*
X200698000Y-74100028D01*
X200573518Y-74112288D01*
X200453820Y-74148598D01*
X200343506Y-74207563D01*
X200246815Y-74286915D01*
X200181342Y-74366694D01*
X200175962Y-74360138D01*
X200041387Y-74249695D01*
X199887851Y-74167628D01*
X199721255Y-74117092D01*
X199548001Y-74100028D01*
X199096705Y-74100028D01*
X199845615Y-73351119D01*
X199867396Y-73353264D01*
X200040650Y-73336200D01*
X200207246Y-73285664D01*
X200360782Y-73203597D01*
X200495357Y-73093154D01*
X200754061Y-72834450D01*
X203492250Y-72834450D01*
X203492250Y-85915450D01*
X203492250Y-85915450D01*
G37*
X203492250Y-85915450D02*
X194595500Y-85915450D01*
X194595500Y-83758100D01*
X198009928Y-83758100D01*
X198022188Y-83882582D01*
X198058498Y-84002280D01*
X198117463Y-84112594D01*
X198196815Y-84209285D01*
X198293506Y-84288637D01*
X198403820Y-84347602D01*
X198523518Y-84383912D01*
X198648000Y-84396172D01*
X198937250Y-84393100D01*
X199096000Y-84234350D01*
X199096000Y-83185100D01*
X198171750Y-83185100D01*
X198013000Y-83343850D01*
X198009928Y-83758100D01*
X194595500Y-83758100D01*
X194595500Y-83589572D01*
X195362000Y-83589572D01*
X195486482Y-83577312D01*
X195606180Y-83541002D01*
X195716494Y-83482037D01*
X195813185Y-83402685D01*
X195892537Y-83305994D01*
X195951502Y-83195680D01*
X195987812Y-83075982D01*
X196000072Y-82951500D01*
X196000072Y-82401500D01*
X195987812Y-82277018D01*
X195987655Y-82276500D01*
X195987812Y-82275982D01*
X196000072Y-82151500D01*
X196000072Y-81601500D01*
X195987812Y-81477018D01*
X195987655Y-81476500D01*
X195987812Y-81475982D01*
X196000072Y-81351500D01*
X196000072Y-81166502D01*
X197283820Y-82450251D01*
X197307678Y-82479322D01*
X197423708Y-82574545D01*
X197556085Y-82645302D01*
X197699722Y-82688874D01*
X197811674Y-82699900D01*
X197811676Y-82699900D01*
X197849099Y-82703586D01*
X197886522Y-82699900D01*
X198012463Y-82699900D01*
X198013000Y-82772350D01*
X198171750Y-82931100D01*
X199096000Y-82931100D01*
X199096000Y-82911100D01*
X199350000Y-82911100D01*
X199350000Y-82931100D01*
X199370000Y-82931100D01*
X199370000Y-83185100D01*
X199350000Y-83185100D01*
X199350000Y-84234350D01*
X199508750Y-84393100D01*
X199798000Y-84396172D01*
X199922482Y-84383912D01*
X200042180Y-84347602D01*
X200152494Y-84288637D01*
X200249185Y-84209285D01*
X200314658Y-84129506D01*
X200320038Y-84136062D01*
X200454613Y-84246505D01*
X200608149Y-84328572D01*
X200774745Y-84379108D01*
X200947999Y-84396172D01*
X201598001Y-84396172D01*
X201771255Y-84379108D01*
X201937851Y-84328572D01*
X202091387Y-84246505D01*
X202225962Y-84136062D01*
X202336405Y-84001487D01*
X202418472Y-83847951D01*
X202469008Y-83681355D01*
X202486072Y-83508101D01*
X202486072Y-82608099D01*
X202469008Y-82434845D01*
X202418472Y-82268249D01*
X202336405Y-82114713D01*
X202322304Y-82097531D01*
X202334645Y-82082493D01*
X202390865Y-81977312D01*
X202395911Y-81967872D01*
X202748000Y-81967872D01*
X202872482Y-81955612D01*
X202992180Y-81919302D01*
X203102494Y-81860337D01*
X203199185Y-81780985D01*
X203278537Y-81684294D01*
X203337502Y-81573980D01*
X203373812Y-81454282D01*
X203386072Y-81329800D01*
X203386072Y-79529800D01*
X203373812Y-79405318D01*
X203337502Y-79285620D01*
X203334391Y-79279800D01*
X203337502Y-79273980D01*
X203373812Y-79154282D01*
X203386072Y-79029800D01*
X203383000Y-78415550D01*
X203224250Y-78256800D01*
X201825000Y-78256800D01*
X201825000Y-78276800D01*
X201571000Y-78276800D01*
X201571000Y-78256800D01*
X201551000Y-78256800D01*
X201551000Y-78002800D01*
X201571000Y-78002800D01*
X201571000Y-77982800D01*
X201825000Y-77982800D01*
X201825000Y-78002800D01*
X203224250Y-78002800D01*
X203383000Y-77844050D01*
X203386072Y-77229800D01*
X203373812Y-77105318D01*
X203337502Y-76985620D01*
X203278537Y-76875306D01*
X203199185Y-76778615D01*
X203102494Y-76699263D01*
X202992180Y-76640298D01*
X202872482Y-76603988D01*
X202748000Y-76591728D01*
X202293984Y-76593553D01*
X202299185Y-76589285D01*
X202378537Y-76492594D01*
X202437502Y-76382280D01*
X202473812Y-76262582D01*
X202486072Y-76138100D01*
X202483000Y-75723850D01*
X202324250Y-75565100D01*
X201400000Y-75565100D01*
X201400000Y-75585100D01*
X201146000Y-75585100D01*
X201146000Y-75565100D01*
X201126000Y-75565100D01*
X201126000Y-75311100D01*
X201146000Y-75311100D01*
X201146000Y-74261850D01*
X201400000Y-74261850D01*
X201400000Y-75311100D01*
X202324250Y-75311100D01*
X202483000Y-75152350D01*
X202486072Y-74738100D01*
X202473812Y-74613618D01*
X202437502Y-74493920D01*
X202378537Y-74383606D01*
X202299185Y-74286915D01*
X202202494Y-74207563D01*
X202092180Y-74148598D01*
X201972482Y-74112288D01*
X201848000Y-74100028D01*
X201558750Y-74103100D01*
X201400000Y-74261850D01*
X201146000Y-74261850D01*
X200987250Y-74103100D01*
X200698000Y-74100028D01*
X200573518Y-74112288D01*
X200453820Y-74148598D01*
X200343506Y-74207563D01*
X200246815Y-74286915D01*
X200181342Y-74366694D01*
X200175962Y-74360138D01*
X200041387Y-74249695D01*
X199887851Y-74167628D01*
X199721255Y-74117092D01*
X199548001Y-74100028D01*
X199096705Y-74100028D01*
X199845615Y-73351119D01*
X199867396Y-73353264D01*
X200040650Y-73336200D01*
X200207246Y-73285664D01*
X200360782Y-73203597D01*
X200495357Y-73093154D01*
X200754061Y-72834450D01*
X203492250Y-72834450D01*
X203492250Y-85915450D01*
G36*
X198925000Y-80302800D02*
G01*
X198945000Y-80302800D01*
X198945000Y-80556800D01*
X198925000Y-80556800D01*
X198925000Y-80576800D01*
X198671000Y-80576800D01*
X198671000Y-80556800D01*
X198651000Y-80556800D01*
X198651000Y-80302800D01*
X198671000Y-80302800D01*
X198671000Y-80282800D01*
X198925000Y-80282800D01*
X198925000Y-80302800D01*
X198925000Y-80302800D01*
G37*
X198925000Y-80302800D02*
X198945000Y-80302800D01*
X198945000Y-80556800D01*
X198925000Y-80556800D01*
X198925000Y-80576800D01*
X198671000Y-80576800D01*
X198671000Y-80556800D01*
X198651000Y-80556800D01*
X198651000Y-80302800D01*
X198671000Y-80302800D01*
X198671000Y-80282800D01*
X198925000Y-80282800D01*
X198925000Y-80302800D01*
G36*
X198009928Y-75888101D02*
G01*
X198026992Y-76061355D01*
X198036001Y-76091054D01*
X198036001Y-76591728D01*
X197748000Y-76591728D01*
X197623518Y-76603988D01*
X197503820Y-76640298D01*
X197393506Y-76699263D01*
X197296815Y-76778615D01*
X197217463Y-76875306D01*
X197158498Y-76985620D01*
X197122188Y-77105318D01*
X197121284Y-77114500D01*
X195769544Y-77114500D01*
X195758496Y-77105433D01*
X195793350Y-77102000D01*
X195793353Y-77102000D01*
X195914626Y-77090056D01*
X196070234Y-77042853D01*
X196213642Y-76966199D01*
X196339341Y-76863041D01*
X196365198Y-76831534D01*
X198009928Y-75186805D01*
X198009928Y-75888101D01*
X198009928Y-75888101D01*
G37*
X198009928Y-75888101D02*
X198026992Y-76061355D01*
X198036001Y-76091054D01*
X198036001Y-76591728D01*
X197748000Y-76591728D01*
X197623518Y-76603988D01*
X197503820Y-76640298D01*
X197393506Y-76699263D01*
X197296815Y-76778615D01*
X197217463Y-76875306D01*
X197158498Y-76985620D01*
X197122188Y-77105318D01*
X197121284Y-77114500D01*
X195769544Y-77114500D01*
X195758496Y-77105433D01*
X195793350Y-77102000D01*
X195793353Y-77102000D01*
X195914626Y-77090056D01*
X196070234Y-77042853D01*
X196213642Y-76966199D01*
X196339341Y-76863041D01*
X196365198Y-76831534D01*
X198009928Y-75186805D01*
X198009928Y-75888101D01*
M02*
