G04 #@! TF.GenerationSoftware,KiCad,Pcbnew,(5.1.4)-1*
G04 #@! TF.CreationDate,2020-08-18T14:14:28-04:00*
G04 #@! TF.ProjectId,my_keyboard,6d795f6b-6579-4626-9f61-72642e6b6963,rev?*
G04 #@! TF.SameCoordinates,Original*
G04 #@! TF.FileFunction,Copper,L1,Top*
G04 #@! TF.FilePolarity,Positive*
%FSLAX46Y46*%
G04 Gerber Fmt 4.6, Leading zero omitted, Abs format (unit mm)*
G04 Created by KiCad (PCBNEW (5.1.4)-1) date 2020-08-18 14:14:28*
%MOMM*%
%LPD*%
G04 APERTURE LIST*
%ADD10C,2.200000*%
%ADD11C,1.778000*%
%ADD12C,2.000000*%
%ADD13R,3.200000X2.000000*%
%ADD14R,2.000000X2.000000*%
%ADD15C,0.800000*%
%ADD16C,6.400000*%
%ADD17O,1.700000X2.700000*%
%ADD18C,0.381000*%
%ADD19C,0.254000*%
G04 APERTURE END LIST*
D10*
X158274000Y-129222000D03*
X164624000Y-126682000D03*
X158274000Y-91122400D03*
X164624000Y-88582400D03*
X110648000Y-138747000D03*
X116998000Y-136207000D03*
D11*
X185261000Y-61594900D03*
X187801000Y-61594900D03*
X190341000Y-61594900D03*
X192881000Y-61594900D03*
D10*
X101124000Y-62547400D03*
X107474000Y-60007400D03*
X107474000Y-79057400D03*
X101124000Y-81597400D03*
X101124000Y-100647400D03*
X107474000Y-98107400D03*
X107474000Y-117157000D03*
X101124000Y-119697000D03*
X126524000Y-60007400D03*
X120174000Y-62547400D03*
X120174000Y-81597400D03*
X126524000Y-79057400D03*
X126524000Y-98107400D03*
X120174000Y-100647400D03*
X120174000Y-119697000D03*
X126524000Y-117157000D03*
X145574000Y-136207000D03*
X139224000Y-138747000D03*
X139224000Y-62547400D03*
X145574000Y-60007400D03*
X145574000Y-79057400D03*
X139224000Y-81597400D03*
X139224000Y-100647400D03*
X145574000Y-98107400D03*
X145574000Y-117157000D03*
X139224000Y-119697000D03*
X164624000Y-60007400D03*
X158274000Y-62547400D03*
D12*
X182350000Y-96600000D03*
X182350000Y-101600000D03*
D13*
X189350000Y-93500000D03*
X189350000Y-104700000D03*
D12*
X196850000Y-96600000D03*
X196850000Y-99100000D03*
D14*
X196850000Y-101600000D03*
X196850000Y-136525000D03*
D12*
X196850000Y-134025000D03*
X196850000Y-131525000D03*
D13*
X189350000Y-139625000D03*
X189350000Y-128425000D03*
D12*
X182350000Y-136525000D03*
X182350000Y-131525000D03*
X182350000Y-114062000D03*
X182350000Y-119062000D03*
D13*
X189350000Y-110962000D03*
X189350000Y-122162000D03*
D12*
X196850000Y-114062000D03*
X196850000Y-116562000D03*
D14*
X196850000Y-119062000D03*
D15*
X201087056Y-58627844D03*
X199390000Y-57924900D03*
X197692944Y-58627844D03*
X196990000Y-60324900D03*
X197692944Y-62021956D03*
X199390000Y-62724900D03*
X201087056Y-62021956D03*
X201790000Y-60324900D03*
D16*
X199390000Y-60324900D03*
X100171000Y-146050000D03*
D15*
X102571000Y-146050000D03*
X101868056Y-147747056D03*
X100171000Y-148450000D03*
X98473944Y-147747056D03*
X97771000Y-146050000D03*
X98473944Y-144352944D03*
X100171000Y-143650000D03*
X101868056Y-144352944D03*
D16*
X114458000Y-74612400D03*
D15*
X116858000Y-74612400D03*
X116155056Y-76309456D03*
X114458000Y-77012400D03*
X112760944Y-76309456D03*
X112058000Y-74612400D03*
X112760944Y-72915344D03*
X114458000Y-72212400D03*
X116155056Y-72915344D03*
X201087056Y-144352944D03*
X199390000Y-143650000D03*
X197692944Y-144352944D03*
X196990000Y-146050000D03*
X197692944Y-147747056D03*
X199390000Y-148450000D03*
X201087056Y-147747056D03*
X201790000Y-146050000D03*
D16*
X199390000Y-146050000D03*
D17*
X174944000Y-61713400D03*
X182244000Y-61713400D03*
X182244000Y-57213400D03*
X174944000Y-57213400D03*
D15*
X190554900Y-69769900D03*
X189889800Y-70799300D03*
X190467400Y-74679100D03*
X193249000Y-80688600D03*
X193221200Y-77661300D03*
X185588200Y-80512800D03*
X186099500Y-79447700D03*
X185867100Y-78055500D03*
X184577500Y-77857700D03*
X184597900Y-81689000D03*
X181845300Y-81076500D03*
X179979000Y-68714500D03*
X178731000Y-76025700D03*
X192445700Y-76025700D03*
X185965500Y-82558300D03*
X175072000Y-75861000D03*
X187312000Y-85975500D03*
X185426900Y-88632500D03*
X187210100Y-81528200D03*
X183662000Y-93198600D03*
X191485700Y-74737100D03*
D18*
X196990000Y-60324900D02*
X197692900Y-59622000D01*
X197692900Y-59622000D02*
X197692900Y-58627800D01*
X198687100Y-147747100D02*
X199390000Y-148450000D01*
X197692900Y-147747100D02*
X198687100Y-147747100D01*
X198687100Y-147747100D02*
X198687100Y-146752900D01*
X198687100Y-146752900D02*
X199390000Y-146050000D01*
X199390000Y-62724900D02*
X198395800Y-62724900D01*
X198395800Y-62724900D02*
X197692900Y-62022000D01*
X201087100Y-62022000D02*
X200384200Y-62724900D01*
X200384200Y-62724900D02*
X199390000Y-62724900D01*
X174944000Y-58954200D02*
X174944000Y-61713400D01*
X115452200Y-72212400D02*
X121501500Y-66163100D01*
X121501500Y-66163100D02*
X121501500Y-64188600D01*
X121501500Y-64188600D02*
X123239800Y-62450300D01*
X123239800Y-62450300D02*
X123239800Y-61182500D01*
X123239800Y-61182500D02*
X125922400Y-58499900D01*
X125922400Y-58499900D02*
X173975700Y-58499900D01*
X173975700Y-58499900D02*
X174430000Y-58954200D01*
X174430000Y-58954200D02*
X174944000Y-58954200D01*
X113463800Y-72915300D02*
X113755100Y-72915300D01*
X113755100Y-72915300D02*
X114458000Y-72212400D01*
X112760900Y-72915300D02*
X113463800Y-72915300D01*
X113463800Y-72915300D02*
X113463800Y-74612400D01*
X113463800Y-74612400D02*
X112760900Y-75315300D01*
X114458000Y-74612400D02*
X113463800Y-74612400D01*
X112760900Y-75315300D02*
X112760900Y-76309500D01*
X112058000Y-74612400D02*
X112760900Y-75315300D01*
X100171000Y-146050000D02*
X99176800Y-146050000D01*
X99176800Y-146050000D02*
X98473900Y-146752900D01*
X98473900Y-146752900D02*
X98473900Y-147747100D01*
X97771000Y-146050000D02*
X98473900Y-146752900D01*
X115452200Y-72212400D02*
X116155100Y-72915300D01*
X114458000Y-72212400D02*
X115452200Y-72212400D01*
X174944000Y-57213400D02*
X174944000Y-58954200D01*
X199390000Y-57924900D02*
X198395800Y-57924900D01*
X198395800Y-57924900D02*
X197692900Y-58627800D01*
X199390000Y-143650000D02*
X198395800Y-143650000D01*
X198395800Y-143650000D02*
X197692900Y-144352900D01*
X199390000Y-148450000D02*
X200384200Y-148450000D01*
X200384200Y-148450000D02*
X201087100Y-147747100D01*
X100171000Y-148450000D02*
X99176800Y-148450000D01*
X99176800Y-148450000D02*
X98473900Y-147747100D01*
X100171000Y-143650000D02*
X101165200Y-143650000D01*
X101165200Y-143650000D02*
X101868100Y-144352900D01*
D19*
X181004700Y-101600000D02*
X177641600Y-101600000D01*
X177641600Y-101600000D02*
X164624000Y-88582400D01*
X182350000Y-101600000D02*
X181004700Y-101600000D01*
X181004700Y-101600000D02*
X181004700Y-117716700D01*
X181004700Y-117716700D02*
X182350000Y-119062000D01*
X182350000Y-119062000D02*
X172244000Y-119062000D01*
X172244000Y-119062000D02*
X164624000Y-126682000D01*
X164624000Y-60007400D02*
X174386500Y-69769900D01*
X174386500Y-69769900D02*
X190554900Y-69769900D01*
X134782100Y-70799300D02*
X126524000Y-79057400D01*
X189889800Y-70799300D02*
X134782100Y-70799300D01*
X134782100Y-70799300D02*
X134782100Y-68265500D01*
X134782100Y-68265500D02*
X126524000Y-60007400D01*
X126524000Y-98107400D02*
X126524000Y-117157000D01*
X145574000Y-136207000D02*
X126524000Y-117157000D01*
X122083800Y-81431900D02*
X127636000Y-81431900D01*
X127636000Y-81431900D02*
X133934500Y-75133400D01*
X133934500Y-75133400D02*
X152072000Y-75133400D01*
X152072000Y-75133400D02*
X152526300Y-74679100D01*
X152526300Y-74679100D02*
X190467400Y-74679100D01*
X122083800Y-81431900D02*
X119709200Y-79057400D01*
X119709200Y-79057400D02*
X107474000Y-79057400D01*
X107474000Y-98107400D02*
X121601400Y-83980000D01*
X121601400Y-83980000D02*
X121601400Y-81914300D01*
X121601400Y-81914300D02*
X122083800Y-81431900D01*
X107474000Y-117157000D02*
X116998000Y-126681000D01*
X116998000Y-126681000D02*
X116998000Y-136207000D01*
X193249000Y-80688600D02*
X193952400Y-79985200D01*
X193952400Y-79985200D02*
X193952400Y-62666300D01*
X193952400Y-62666300D02*
X192881000Y-61594900D01*
X190341000Y-61594900D02*
X193221200Y-64475100D01*
X193221200Y-64475100D02*
X193221200Y-77661300D01*
X185588200Y-80512800D02*
X187224400Y-80512800D01*
X187224400Y-80512800D02*
X191731800Y-85020200D01*
X191731800Y-85020200D02*
X191731800Y-113943800D01*
X191731800Y-113943800D02*
X196850000Y-119062000D01*
X196850000Y-114062000D02*
X192186200Y-109398200D01*
X192186200Y-109398200D02*
X192186200Y-84820200D01*
X192186200Y-84820200D02*
X186813700Y-79447700D01*
X186813700Y-79447700D02*
X186099500Y-79447700D01*
X196850000Y-96600000D02*
X196850000Y-88770700D01*
X196850000Y-88770700D02*
X186134800Y-78055500D01*
X186134800Y-78055500D02*
X185867100Y-78055500D01*
X196850000Y-101600000D02*
X198214300Y-100235700D01*
X198214300Y-100235700D02*
X198214300Y-89337700D01*
X198214300Y-89337700D02*
X186175800Y-77299200D01*
X186175800Y-77299200D02*
X185136000Y-77299200D01*
X185136000Y-77299200D02*
X184577500Y-77857700D01*
X184597900Y-81689000D02*
X182881600Y-83405300D01*
X182881600Y-83405300D02*
X182881600Y-93896600D01*
X182881600Y-93896600D02*
X191277400Y-102292400D01*
X191277400Y-102292400D02*
X191277400Y-125952400D01*
X191277400Y-125952400D02*
X196850000Y-131525000D01*
X196850000Y-136525000D02*
X194375000Y-136525000D01*
X194375000Y-136525000D02*
X184131700Y-126281700D01*
X184131700Y-126281700D02*
X184131700Y-96370500D01*
X184131700Y-96370500D02*
X181845300Y-94084100D01*
X181845300Y-94084100D02*
X181845300Y-81076500D01*
D18*
X185261000Y-61594900D02*
X185261000Y-63432500D01*
X185261000Y-63432500D02*
X179979000Y-68714500D01*
D19*
X178731000Y-76025700D02*
X192445700Y-76025700D01*
X175072000Y-75861000D02*
X179230400Y-80019400D01*
X179230400Y-80019400D02*
X184015200Y-80019400D01*
X184015200Y-80019400D02*
X185965500Y-81969700D01*
X185965500Y-81969700D02*
X185965500Y-82558300D01*
X185426900Y-88632500D02*
X187312000Y-86747400D01*
X187312000Y-86747400D02*
X187312000Y-85975500D01*
X183662000Y-93198600D02*
X183662000Y-88234900D01*
X183662000Y-88234900D02*
X187210100Y-84686800D01*
X187210100Y-84686800D02*
X187210100Y-81528200D01*
X145574000Y-79057400D02*
X148790600Y-79057400D01*
X148790600Y-79057400D02*
X152714500Y-75133500D01*
X152714500Y-75133500D02*
X189893200Y-75133500D01*
X189893200Y-75133500D02*
X190190000Y-75430300D01*
X190190000Y-75430300D02*
X190792500Y-75430300D01*
X190792500Y-75430300D02*
X191485700Y-74737100D01*
X145574000Y-117157000D02*
X150770600Y-117157000D01*
X150770600Y-117157000D02*
X170138600Y-136525000D01*
X170138600Y-136525000D02*
X182350000Y-136525000D01*
X145574000Y-117157000D02*
X145574000Y-98107400D01*
X145574000Y-98107400D02*
X145574000Y-79057400D01*
M02*
